<svg width="95" height="95" viewBox="0 0 95 95" fill="none" xmlns="http://www.w3.org/2000/svg">
<path fill-rule="evenodd" clip-rule="evenodd" d="M56.5685 22.6271C65.9411 31.9997 65.9411 47.1956 56.5685 56.5682C47.196 65.9408 32 65.9408 22.6274 56.5682C13.2548 47.1956 13.2548 31.9997 22.6274 22.6271C32 13.2545 47.196 13.2545 56.5685 22.6271ZM60.7615 57.9327C70.311 46.9329 69.8561 30.2578 59.397 19.7987C48.4623 8.86399 30.7337 8.86399 19.799 19.7987C8.86431 30.7333 8.86431 48.462 19.799 59.3966C30.2582 69.8558 46.9332 70.3106 57.933 60.7611L72.1249 74.953C72.9059 75.734 74.1723 75.734 74.9533 74.953C75.7344 74.1719 75.7344 72.9056 74.9533 72.1246L60.7615 57.9327Z" fill="#CBD3E1"/>
<rect x="29.3762" y="35.375" width="3" height="4" rx="1.5" fill="#CBD3E1"/>
<rect x="45.3762" y="35.375" width="3" height="4" rx="1.5" fill="#CBD3E1"/>
<rect x="36.3762" y="44.375" width="6" height="2" fill="#CBD3E1"/>
</svg>
