<svg width="24" height="24" viewBox="0 0 24 24" fill="none" xmlns="http://www.w3.org/2000/svg">
<path fill-rule="evenodd" clip-rule="evenodd" d="M18.0002 5H18.1916C18.7438 5 19.1916 5.44772 19.1916 6V10.1916C19.1916 10.7438 18.7438 11.1916 18.1916 11.1916C17.6393 11.1916 17.1916 10.7438 17.1916 10.1916V8.22265L10.7071 14.7071C10.3166 15.0976 9.68342 15.0976 9.29289 14.7071C8.90237 14.3166 8.90237 13.6834 9.29289 13.2929L15.5858 7H14C13.4477 7 13 6.55228 13 6C13 5.44772 13.4477 5 14 5H17.9998C17.9999 5 18.0001 5 18.0002 5ZM7.33333 9C7.24493 9 7.16014 9.03512 7.09763 9.09763C7.03512 9.16014 7 9.24493 7 9.33333V16.6667C7 16.7551 7.03512 16.8399 7.09763 16.9024C7.16014 16.9649 7.24493 17 7.33333 17H14.6667C14.7551 17 14.8399 16.9649 14.9024 16.9024C14.9649 16.8399 15 16.7551 15 16.6667V12.6667C15 12.1144 15.4477 11.6667 16 11.6667C16.5523 11.6667 17 12.1144 17 12.6667V16.6667C17 17.2855 16.7542 17.879 16.3166 18.3166C15.879 18.7542 15.2855 19 14.6667 19H7.33333C6.71449 19 6.121 18.7542 5.68342 18.3166C5.24583 17.879 5 17.2855 5 16.6667V9.33333C5 8.7145 5.24583 8.121 5.68342 7.68342C6.121 7.24583 6.7145 7 7.33333 7H11.3333C11.8856 7 12.3333 7.44772 12.3333 8C12.3333 8.55228 11.8856 9 11.3333 9H7.33333Z" fill="#ABABAB"/>
</svg>
