<svg width="20" height="20" viewBox="0 0 20 20" fill="none" xmlns="http://www.w3.org/2000/svg">
<path fill-rule="evenodd" clip-rule="evenodd" d="M9.6405 5.5C9.6405 4.25 9.8905 4 10.3905 4C10.8905 4 12.0155 4.5 12.0155 6C12.0155 7.25 11.6405 8 11.6405 8H14.0005C15.2405 8 16.1805 9.115 15.9705 10.34L15.4105 13.59C15.2455 14.55 14.4155 15.25 13.4405 15.25H12.6405C10.153 15.25 8.5505 14.701 7.75 14.3305V8.1365C8.49 7.644 9.6405 6.688 9.6405 5.5ZM6.125 15.125H4.875C4.3925 15.125 4 14.7325 4 14.25V8.5C4 8.0175 4.3925 7.625 4.875 7.625H6.125C6.6075 7.625 7 8.0175 7 8.5V14.25C7 14.7325 6.6075 15.125 6.125 15.125Z" fill="white"/>
</svg>
