<svg width="744" height="388" viewBox="0 0 744 388" fill="none" xmlns="http://www.w3.org/2000/svg">
<g clip-path="url(#clip0_0_10368)">
<rect width="744" height="388" rx="16" fill="#ECEFF4"/>
<path d="M424.96 328.76H421.856L420.416 334.328C420.288 334.776 420 335 419.552 335H418.784C418.336 335 418.176 334.776 418.304 334.328L419.744 328.76H415.264L413.824 334.328C413.696 334.776 413.408 335 412.96 335H412.192C411.744 335 411.584 334.776 411.712 334.328L413.152 328.76H410.56C410.112 328.76 409.856 328.536 409.984 328.12L410.176 327.48C410.304 327.096 410.464 327 410.912 327H413.6L414.816 322.232H411.808C411.36 322.232 411.104 322.008 411.232 321.592L411.424 320.952C411.552 320.568 411.712 320.472 412.16 320.472H415.264L416.736 314.872C416.864 314.424 417.152 314.2 417.6 314.2H418.368C418.816 314.2 418.976 314.424 418.848 314.872L417.376 320.472H421.856L423.328 314.872C423.456 314.424 423.744 314.2 424.192 314.2H424.96C425.408 314.2 425.568 314.424 425.44 314.872L423.968 320.472H426.56C427.008 320.472 427.264 320.696 427.136 321.112L426.944 321.752C426.816 322.136 426.656 322.232 426.208 322.232H423.52L422.304 327H425.312C425.76 327 426.016 327.224 425.888 327.64L425.696 328.28C425.568 328.664 425.408 328.76 424.96 328.76ZM416.928 322.232L415.712 327H420.192L421.408 322.232H416.928ZM450.821 327.896C451.365 327.896 452.101 328.472 452.101 328.888C452.101 329.176 452.005 329.592 452.005 330.456V333.592V333.656C452.005 334.168 451.557 334.904 450.821 334.904H437.733V337.656C437.733 338.136 437.957 338.392 438.437 338.392H451.493C452.101 338.392 452.485 338.232 452.773 338.232C453.029 338.232 453.317 338.552 453.317 338.84C453.317 339.352 452.261 340.12 451.493 340.12H437.669C436.261 340.12 435.525 339.192 435.525 337.912V335.864C435.525 334.872 435.429 334.552 434.149 334.392C433.445 334.296 433.701 333.176 434.245 333.176H449.797V329.816H438.629C437.637 329.816 436.965 329.976 436.453 329.976C435.909 329.976 435.205 329.624 434.469 328.824C433.957 328.312 434.501 327.576 435.077 327.832C435.621 328.088 436.933 328.088 438.629 328.088H448.581C449.957 328.088 450.341 327.896 450.821 327.896ZM446.021 311.896C445.733 313.016 445.221 314.104 444.389 315.128C447.653 316.664 450.661 317.976 453.381 319.064C453.925 319.48 454.405 320.408 454.405 320.984C454.405 321.432 453.925 321.848 453.349 321.528C451.013 320.28 447.621 318.52 443.205 316.408C441.093 318.36 437.957 320.088 433.765 321.624C433.125 321.848 432.357 320.92 432.965 320.632C437.893 318.424 441.445 315.832 443.173 312.888C443.205 312.312 442.629 311.768 441.221 311.256C440.613 311.032 440.933 309.944 441.669 310.104L445.509 311C446.149 311.128 446.085 311.672 446.021 311.896ZM430.021 323.992C429.541 323.48 430.053 322.68 430.629 322.968C431.173 323.224 432.485 323.224 434.181 323.224H455.621C456.197 323.224 456.453 323.096 456.741 323.096C457.125 323.096 457.285 323.32 457.285 323.704C457.285 324.344 456.549 324.984 455.621 324.984H434.181C433.189 324.984 432.517 325.144 432.005 325.144C431.461 325.144 430.757 324.792 430.021 323.992ZM479.634 328.856C480.178 328.856 480.914 329.432 480.914 329.848C480.914 330.136 480.818 330.552 480.818 331.416V334.072V334.136C480.818 334.648 480.37 335.384 479.634 335.384H466.546V337.656C466.546 338.136 466.77 338.392 467.25 338.392H480.306C480.914 338.392 481.298 338.232 481.586 338.232C481.842 338.232 482.13 338.552 482.13 338.84C482.13 339.352 481.074 340.12 480.306 340.12H466.482C465.074 340.12 464.338 339.192 464.338 337.912V336.344C464.338 335.352 464.242 335.032 462.962 334.872C462.258 334.776 462.514 333.656 463.058 333.656H478.61V330.776H467.442C466.45 330.776 465.778 330.936 465.266 330.936C464.722 330.936 464.018 330.584 463.282 329.784C462.77 329.272 463.314 328.536 463.89 328.792C464.434 329.048 465.746 329.048 467.442 329.048H477.778C478.834 329.016 479.186 328.856 479.634 328.856ZM481.202 321.4H465.81C464.818 321.4 464.146 321.56 463.634 321.56C463.09 321.56 462.386 321.208 461.65 320.408C461.138 319.896 461.682 319.128 462.258 319.384C462.802 319.64 464.114 319.64 465.81 319.64H466.738V317.016C466.738 315.704 466.674 315.448 465.394 315.096C464.786 314.936 464.978 313.88 465.746 313.976L468.402 314.264C469.042 314.328 468.978 314.744 468.978 314.968C468.978 315.256 468.882 315.672 468.882 316.536V319.64H476.402V316.632C476.402 315.352 476.338 315.032 475.058 314.68C474.45 314.52 474.642 313.464 475.41 313.56L478.066 313.88C478.706 313.976 478.642 314.36 478.642 314.584C478.642 314.872 478.546 315.288 478.546 316.152V319.64H481.202C481.874 319.64 482.354 319.512 482.642 319.512C482.898 319.512 483.186 319.832 483.186 320.12C483.186 320.632 482.002 321.4 481.202 321.4ZM458.834 325.208C458.354 324.696 458.866 323.896 459.442 324.184C459.986 324.44 461.298 324.44 462.994 324.44H484.434C485.01 324.44 485.266 324.312 485.554 324.312C485.938 324.312 486.098 324.536 486.098 324.92C486.098 325.56 485.362 326.2 484.434 326.2H462.994C462.002 326.2 461.33 326.36 460.818 326.36C460.274 326.36 459.57 326.008 458.834 325.208ZM480.434 312.632H466.385C465.394 312.632 464.722 312.792 464.21 312.792C463.666 312.792 462.962 312.44 462.226 311.64C461.714 311.128 462.258 310.36 462.834 310.616C463.378 310.872 464.69 310.872 466.385 310.872H480.434C481.106 310.872 481.586 310.744 481.874 310.744C482.13 310.744 482.418 311.064 482.418 311.352C482.418 311.864 481.234 312.632 480.434 312.632ZM506.846 313.4V321.752H510.814V313.336C510.814 311.832 510.558 311.448 508.926 311.032C508.318 310.872 508.638 309.752 509.31 309.848L512.446 310.328C513.118 310.424 513.054 310.808 513.054 311.032C513.054 311.288 512.926 311.832 512.926 312.728V336.696C512.926 337.944 512.51 339.064 511.582 339.064C511.166 339.064 510.814 338.584 510.814 337.464V323.48H506.846V335.448C506.846 336.696 506.43 337.816 505.534 337.816C505.118 337.816 504.766 337.336 504.766 336.216V328.824C502.974 329.72 500.99 330.36 498.782 330.68C497.726 330.84 497.054 330.232 496.766 329.4C495.294 330.136 493.566 330.552 491.582 330.68C490.174 330.776 489.438 329.752 489.438 328.472V317.56C489.438 316.44 489.342 316.088 488.254 315.928C487.55 315.832 487.838 314.68 488.35 314.68H493.118C493.726 314.68 493.95 314.552 494.238 314.552C494.494 314.552 494.782 314.872 494.782 315.16C494.782 315.672 493.822 316.44 493.118 316.44H491.55V328.024C491.55 328.504 491.774 328.76 492.254 328.76C493.566 328.76 495.134 328.536 496.638 328.088V317.56C496.638 316.44 496.574 316.088 495.678 315.928C494.974 315.8 495.262 314.68 495.774 314.68H501.31C501.918 314.68 502.142 314.552 502.43 314.552C502.686 314.552 502.974 314.872 502.974 315.16C502.974 315.672 502.014 316.44 501.31 316.44H498.75V328.024C498.75 328.504 498.974 328.792 499.454 328.76C501.15 328.6 502.878 328.152 504.766 327.48V313.976C504.766 312.536 504.574 312.152 503.006 311.736C502.43 311.576 502.718 310.488 503.39 310.584L506.366 311C507.038 311.096 506.974 311.48 506.974 311.704C506.974 311.96 506.846 312.504 506.846 313.4ZM517.355 322.584C517.355 316.536 520.075 314.264 523.403 314.264C526.411 314.264 528.971 316.184 529.387 321.176C529.867 321.368 530.763 321.4 532.523 321.4H533.355V314.008C533.355 312.568 532.779 312.152 531.211 311.736C530.635 311.576 530.923 310.488 531.595 310.584L534.987 311.032C535.659 311.128 535.595 311.512 535.595 311.736C535.595 311.992 535.467 312.536 535.467 313.432V335.448C535.467 336.696 535.019 337.816 534.123 337.816C533.707 337.816 533.355 337.336 533.355 336.216V323.128H532.523C531.531 323.128 531.211 323.288 530.699 323.288C530.411 323.288 529.931 323.096 529.451 322.744C529.387 328.664 526.667 330.84 523.403 330.84C520.075 330.84 517.355 328.632 517.355 322.584ZM519.627 322.616C519.627 327.416 521.355 329.112 523.403 329.112C525.451 329.112 527.179 327.416 527.179 322.616C527.179 317.752 525.451 315.992 523.403 315.992C521.355 315.992 519.627 317.752 519.627 322.616ZM541.419 312.76V336.696C541.419 337.944 540.971 339.064 540.043 339.064C539.627 339.064 539.275 338.584 539.275 337.464V313.368C539.275 311.864 538.635 311.448 537.003 311.032C536.395 310.872 536.715 309.752 537.387 309.848L540.939 310.36C541.611 310.456 541.547 310.84 541.547 311.064C541.547 311.32 541.419 311.864 541.419 312.76ZM569.495 312.76V324.216C569.495 325.464 569.079 326.648 568.087 326.648C567.607 326.648 567.287 326.168 567.287 325.016V322.392C562.423 323.864 556.823 324.568 550.583 324.696C549.591 324.728 548.919 324.856 548.407 324.856C547.863 324.856 547.159 324.504 546.423 323.704C545.943 323.192 546.455 322.392 547.031 322.68C547.543 322.936 548.823 322.936 550.455 322.936V319C550.455 317.72 550.423 317.4 549.111 317.08C548.503 316.92 548.695 315.864 549.463 315.96L552.119 316.248C552.759 316.312 552.695 316.728 552.695 316.952C552.695 317.24 552.599 317.656 552.599 318.52V322.904C554.551 322.872 556.471 322.744 558.359 322.552V318.488C558.359 317.208 558.327 316.856 557.015 316.536C556.407 316.376 556.599 315.32 557.367 315.416L560.023 315.736C560.663 315.8 560.599 316.216 560.599 316.44C560.599 316.728 560.503 317.144 560.503 318.008V322.296C562.807 321.976 565.079 321.56 567.287 321.048V313.368C567.287 311.864 566.647 311.448 565.015 311.032C564.407 310.872 564.727 309.752 565.399 309.848L569.015 310.36C569.687 310.456 569.623 310.84 569.623 311.064C569.623 311.32 569.495 311.864 569.495 312.76ZM568.119 327.832C568.663 327.832 569.399 328.408 569.399 328.824C569.399 329.112 569.303 329.528 569.303 330.392V333.56V333.624C569.303 334.136 568.855 334.872 568.119 334.872H555.351V337.656C555.351 338.136 555.575 338.392 556.055 338.392H568.855C569.463 338.392 569.847 338.232 570.135 338.232C570.391 338.232 570.679 338.552 570.679 338.84C570.679 339.352 569.623 340.12 568.855 340.12H555.287C553.879 340.12 553.143 339.192 553.143 337.912V335.832C553.143 334.84 553.047 334.52 551.767 334.36C551.063 334.264 551.319 333.144 551.863 333.144H567.095V329.752H556.087C555.095 329.752 554.423 329.912 553.911 329.912C553.367 329.912 552.663 329.56 551.927 328.76C551.415 328.248 551.959 327.512 552.535 327.768C553.079 328.024 554.391 328.024 556.087 328.024H566.263C567.319 327.992 567.671 327.832 568.119 327.832ZM561.559 314.232H550.903C549.911 314.232 549.239 314.392 548.727 314.392C548.183 314.392 547.479 314.04 546.743 313.24C546.263 312.728 546.775 311.928 547.351 312.216C547.895 312.472 549.207 312.472 550.903 312.472H561.559C562.231 312.472 562.711 312.344 562.999 312.344C563.255 312.344 563.543 312.664 563.543 312.952C563.543 313.496 562.359 314.232 561.559 314.232ZM594.66 312.12C595.204 312.12 595.94 312.696 595.94 313.112C595.94 313.4 595.844 313.816 595.844 314.68V319.16V319.224C595.844 319.768 595.204 320.504 594.5 320.504H581.508V324.472C581.508 324.952 581.732 325.208 582.212 325.208H595.332C595.908 325.208 596.164 325.08 596.452 325.08C596.708 325.08 596.996 325.432 596.996 325.72C596.996 326.264 596.036 326.968 595.332 326.968H581.444C580.036 326.968 579.3 326.04 579.3 324.76V321.464C579.3 320.472 579.204 320.152 577.924 319.992C577.22 319.896 577.508 318.744 578.02 318.744H593.636V314.072H582.564C581.572 314.072 580.9 314.232 580.388 314.232C579.844 314.232 579.14 313.88 578.404 313.08C577.924 312.568 578.436 311.768 579.012 312.056C579.556 312.312 580.868 312.312 582.564 312.312H592.804C593.86 312.28 594.244 312.12 594.66 312.12ZM574.084 333.496C573.604 332.984 574.116 332.184 574.692 332.472C575.236 332.728 576.548 332.728 578.244 332.728H586.756V331.032C586.756 329.752 586.436 329.432 584.868 329.048C584.26 328.888 584.452 327.768 585.22 327.864L588.484 328.216C589.124 328.28 589.06 328.696 589.06 328.92C589.06 329.208 588.964 329.624 588.964 330.488V332.728H599.684C600.26 332.728 600.516 332.6 600.804 332.6C601.188 332.6 601.348 332.824 601.348 333.208C601.348 333.848 600.612 334.488 599.684 334.488H578.244C577.252 334.488 576.58 334.648 576.068 334.648C575.524 334.648 574.82 334.296 574.084 333.496ZM625.36 315.608C624.912 321.272 623.856 326.52 622.256 331.448H628.496C629.072 331.448 629.328 331.32 629.616 331.32C630 331.32 630.16 331.544 630.16 331.928C630.16 332.568 629.424 333.208 628.496 333.208H607.056C606.064 333.208 605.392 333.368 604.88 333.368C604.336 333.368 603.632 333.016 602.896 332.216C602.416 331.704 602.928 330.904 603.504 331.192C604.048 331.448 605.36 331.448 607.056 331.448H620.848C621.872 326.2 622.48 320.696 622.768 315H610.672C609.68 315 609.008 315.16 608.496 315.16C607.952 315.16 607.248 314.808 606.512 314.008C606.032 313.496 606.544 312.696 607.12 312.984C607.664 313.24 608.976 313.24 610.672 313.24H621.84C623.184 313.24 623.728 313.048 624.176 313.048C624.72 313.048 625.456 313.624 625.456 314.04C625.456 314.328 625.392 314.744 625.36 315.608Z" fill="#ABB8CE"/>
<path d="M655.96 328.76H652.856L651.416 334.328C651.288 334.776 651 335 650.552 335H649.784C649.336 335 649.176 334.776 649.304 334.328L650.744 328.76H646.264L644.824 334.328C644.696 334.776 644.408 335 643.96 335H643.192C642.744 335 642.584 334.776 642.712 334.328L644.152 328.76H641.56C641.112 328.76 640.856 328.536 640.984 328.12L641.176 327.48C641.304 327.096 641.464 327 641.912 327H644.6L645.816 322.232H642.808C642.36 322.232 642.104 322.008 642.232 321.592L642.424 320.952C642.552 320.568 642.712 320.472 643.16 320.472H646.264L647.736 314.872C647.864 314.424 648.152 314.2 648.6 314.2H649.368C649.816 314.2 649.976 314.424 649.848 314.872L648.376 320.472H652.856L654.328 314.872C654.456 314.424 654.744 314.2 655.192 314.2H655.96C656.408 314.2 656.568 314.424 656.44 314.872L654.968 320.472H657.56C658.008 320.472 658.264 320.696 658.136 321.112L657.944 321.752C657.816 322.136 657.656 322.232 657.208 322.232H654.52L653.304 327H656.312C656.76 327 657.016 327.224 656.888 327.64L656.696 328.28C656.568 328.664 656.408 328.76 655.96 328.76ZM647.928 322.232L646.712 327H651.192L652.408 322.232H647.928ZM664.381 317.816C664.381 313.496 667.613 311.864 671.613 311.864C675.613 311.864 678.877 313.496 678.877 317.816C678.877 322.136 675.613 323.672 671.613 323.672C667.613 323.672 664.381 322.136 664.381 317.816ZM666.141 327.096C671.549 327.096 677.597 326.712 683.037 326.04V313.368C683.037 311.864 682.397 311.448 680.765 311.032C680.157 310.872 680.477 309.752 681.149 309.848L684.765 310.36C685.437 310.456 685.373 310.84 685.373 311.064C685.373 311.32 685.245 311.864 685.245 312.76V336.664C685.245 337.912 684.829 339.096 683.837 339.096C683.357 339.096 683.037 338.616 683.037 337.464V327.384C679.997 327.928 676.701 328.344 673.341 328.6V336.248C673.341 337.496 672.925 338.68 671.933 338.68C671.453 338.68 671.133 338.2 671.133 337.048V328.728C669.437 328.824 667.773 328.856 666.141 328.856C665.149 328.856 664.477 329.016 663.965 329.016C663.421 329.016 662.717 328.664 661.981 327.864C661.501 327.352 662.013 326.552 662.589 326.84C663.133 327.096 664.445 327.096 666.141 327.096ZM666.685 317.848C666.685 320.888 668.925 321.944 671.613 321.944C674.301 321.944 676.605 320.888 676.605 317.848C676.605 314.616 674.301 313.592 671.613 313.592C668.925 313.592 666.685 314.616 666.685 317.848ZM710.41 312.12C710.954 312.12 711.69 312.696 711.69 313.112C711.69 313.4 711.594 313.816 711.594 314.68V319.16V319.224C711.594 319.768 710.954 320.504 710.25 320.504H697.258V324.472C697.258 324.952 697.482 325.208 697.962 325.208H711.082C711.658 325.208 711.914 325.08 712.202 325.08C712.458 325.08 712.746 325.432 712.746 325.72C712.746 326.264 711.786 326.968 711.082 326.968H697.194C695.786 326.968 695.05 326.04 695.05 324.76V321.464C695.05 320.472 694.954 320.152 693.674 319.992C692.97 319.896 693.258 318.744 693.77 318.744H709.386V314.072H698.314C697.322 314.072 696.65 314.232 696.138 314.232C695.594 314.232 694.89 313.88 694.154 313.08C693.674 312.568 694.186 311.768 694.762 312.056C695.306 312.312 696.618 312.312 698.314 312.312H708.554C709.61 312.28 709.994 312.12 710.41 312.12ZM689.834 333.496C689.354 332.984 689.866 332.184 690.442 332.472C690.986 332.728 692.298 332.728 693.994 332.728H702.506V331.032C702.506 329.752 702.186 329.432 700.618 329.048C700.01 328.888 700.202 327.768 700.97 327.864L704.234 328.216C704.874 328.28 704.81 328.696 704.81 328.92C704.81 329.208 704.714 329.624 704.714 330.488V332.728H715.434C716.01 332.728 716.266 332.6 716.554 332.6C716.938 332.6 717.098 332.824 717.098 333.208C717.098 333.848 716.362 334.488 715.434 334.488H693.994C693.002 334.488 692.33 334.648 691.818 334.648C691.274 334.648 690.57 334.296 689.834 333.496ZM744.63 324.184H741.27V336.664C741.27 337.912 740.854 339.096 739.862 339.096C739.382 339.096 739.062 338.616 739.062 337.464V313.368C739.062 311.864 738.422 311.448 736.79 311.032C736.182 310.872 736.502 309.752 737.174 309.848L740.79 310.36C741.462 310.456 741.398 310.84 741.398 311.064C741.398 311.32 741.27 311.864 741.27 312.76V322.424H744.63C745.238 322.424 745.462 322.296 745.75 322.296C746.006 322.296 746.294 322.616 746.294 322.904C746.294 323.416 745.334 324.184 744.63 324.184ZM718.678 330.936C725.014 327.48 729.174 322.296 731.382 315.928H723.926C722.934 315.928 722.262 316.088 721.75 316.088C721.206 316.088 720.502 315.736 719.766 314.936C719.286 314.424 719.798 313.624 720.374 313.912C720.918 314.168 722.23 314.168 723.926 314.168H730.518C731.862 314.168 732.374 313.976 732.822 313.976C733.366 313.976 734.102 314.552 734.102 314.968C734.102 315.32 733.846 315.832 733.686 316.504C731.414 323.512 726.582 328.664 719.35 331.992C718.71 332.28 718.07 331.256 718.678 330.936Z" fill="#ABB8CE"/>
<path d="M400.96 278.76H397.856L396.416 284.328C396.288 284.776 396 285 395.552 285H394.784C394.336 285 394.176 284.776 394.304 284.328L395.744 278.76H391.264L389.824 284.328C389.696 284.776 389.408 285 388.96 285H388.192C387.744 285 387.584 284.776 387.712 284.328L389.152 278.76H386.56C386.112 278.76 385.856 278.536 385.984 278.12L386.176 277.48C386.304 277.096 386.464 277 386.912 277H389.6L390.816 272.232H387.808C387.36 272.232 387.104 272.008 387.232 271.592L387.424 270.952C387.552 270.568 387.712 270.472 388.16 270.472H391.264L392.736 264.872C392.864 264.424 393.152 264.2 393.6 264.2H394.368C394.816 264.2 394.976 264.424 394.848 264.872L393.376 270.472H397.856L399.328 264.872C399.456 264.424 399.744 264.2 400.192 264.2H400.96C401.408 264.2 401.568 264.424 401.44 264.872L399.968 270.472H402.56C403.008 270.472 403.264 270.696 403.136 271.112L402.944 271.752C402.816 272.136 402.656 272.232 402.208 272.232H399.52L398.304 277H401.312C401.76 277 402.016 277.224 401.888 277.64L401.696 278.28C401.568 278.664 401.408 278.76 400.96 278.76ZM392.928 272.232L391.712 277H396.192L397.408 272.232H392.928ZM410.949 266.984C410.949 262.184 414.757 260.424 419.493 260.424C424.229 260.424 428.069 262.184 428.069 266.984C428.069 271.752 424.229 273.48 419.493 273.48C414.757 273.48 410.949 271.752 410.949 266.984ZM413.221 267.016C413.221 270.504 416.069 271.752 419.493 271.752C422.981 271.752 425.829 270.504 425.829 267.016C425.829 263.432 422.981 262.152 419.493 262.152C416.069 262.152 413.221 263.432 413.221 267.016ZM406.021 277.736C405.541 277.224 406.053 276.424 406.629 276.712C407.173 276.968 408.485 276.968 410.181 276.968H431.621C432.197 276.968 432.453 276.84 432.741 276.84C433.125 276.84 433.285 277.064 433.285 277.448C433.285 278.088 432.549 278.728 431.621 278.728H420.613V287.304C420.613 288.552 420.165 289.736 419.141 289.736C418.469 289.736 418.405 288.84 418.405 288.104V278.728H410.181C409.189 278.728 408.517 278.888 408.005 278.888C407.461 278.888 406.757 278.536 406.021 277.736ZM439.282 279.144C438.77 278.632 439.314 277.896 439.89 278.152C440.434 278.408 441.746 278.408 443.442 278.408H447.186V274.856H438.994C438.002 274.856 437.33 275.016 436.818 275.016C436.274 275.016 435.57 274.664 434.834 273.864C434.354 273.352 434.866 272.552 435.442 272.84C435.986 273.096 437.298 273.096 438.994 273.096H460.434C461.01 273.096 461.266 272.968 461.554 272.968C461.938 272.968 462.098 273.192 462.098 273.576C462.098 274.216 461.362 274.856 460.434 274.856H449.394V278.408H453.394C454.77 278.408 455.154 278.216 455.634 278.216C456.178 278.216 456.914 278.792 456.914 279.208C456.914 279.496 456.818 279.912 456.818 280.776V283.816C456.818 284.328 456.37 285.064 455.634 285.064H442.546V287.656C442.546 288.136 442.77 288.392 443.25 288.392H456.306C456.914 288.392 457.298 288.232 457.586 288.232C457.842 288.232 458.13 288.552 458.13 288.84C458.13 289.352 457.074 290.12 456.306 290.12H442.482C441.074 290.12 440.338 289.192 440.338 287.912V286.024C440.338 285.032 440.242 284.712 438.962 284.552C438.258 284.456 438.514 283.336 439.058 283.336H454.61V280.136H443.442C442.45 280.136 441.778 280.296 441.266 280.296C440.722 280.296 440.018 279.944 439.282 279.144ZM439.89 265.544C439.89 261.608 443.634 260.168 448.306 260.168C453.01 260.168 456.786 261.608 456.786 265.544C456.786 269.48 453.01 270.888 448.306 270.888C443.634 270.888 439.89 269.48 439.89 265.544ZM442.161 265.576C442.161 268.232 444.978 269.16 448.306 269.16C451.73 269.16 454.546 268.232 454.546 265.576C454.546 262.856 451.73 261.896 448.306 261.896C444.978 261.896 442.161 262.856 442.161 265.576ZM482.014 263.432V271.752H486.462V263.368C486.462 261.864 485.822 261.448 484.19 261.032C483.582 260.872 483.902 259.752 484.574 259.848L488.126 260.36C488.798 260.456 488.734 260.84 488.734 261.064C488.734 261.32 488.606 261.864 488.606 262.76V286.696C488.606 287.944 488.158 289.064 487.23 289.064C486.814 289.064 486.462 288.584 486.462 287.464V273.48H482.014V285.448C482.014 286.696 481.566 287.816 480.67 287.816C480.254 287.816 479.902 287.336 479.902 286.216V264.008C479.902 262.568 479.326 262.152 477.758 261.736C477.182 261.576 477.47 260.488 478.142 260.584L481.534 261.032C482.206 261.128 482.142 261.512 482.142 261.736C482.142 261.992 482.014 262.536 482.014 263.432ZM465.214 276.872C465.214 272.808 467.87 271.304 471.198 271.304C474.558 271.304 477.246 272.808 477.246 276.872C477.246 280.872 474.558 282.376 471.198 282.376C467.87 282.376 465.214 280.872 465.214 276.872ZM467.486 276.904C467.486 279.656 469.214 280.616 471.198 280.616C473.278 280.616 475.006 279.656 475.006 276.904C475.006 274.056 473.278 273.064 471.198 273.064C469.214 273.064 467.486 274.056 467.486 276.904ZM476.446 269.384H468.03C467.038 269.384 466.366 269.544 465.854 269.544C465.31 269.544 464.606 269.16 463.87 268.36C463.39 267.848 463.902 267.112 464.478 267.4C465.022 267.656 466.334 267.656 468.03 267.656H476.446C477.022 267.656 477.278 267.528 477.566 267.528C477.822 267.528 478.11 267.816 478.11 268.104C478.11 268.648 477.15 269.384 476.446 269.384ZM471.326 264.84C469.758 264.84 468.51 264.872 467.166 263.624C466.654 263.144 467.166 262.28 467.774 262.536C468.318 262.792 469.182 262.952 471.326 262.952H474.622C474.878 262.952 475.134 263.336 475.134 263.688C475.134 264.232 473.982 264.84 471.326 264.84ZM497.387 268.584C497.387 263.496 501.195 261.64 505.931 261.64C510.667 261.64 514.507 263.496 514.507 268.584C514.507 273.64 510.667 275.464 505.931 275.464C501.195 275.464 497.387 273.64 497.387 268.584ZM499.659 268.616C499.659 272.36 502.507 273.736 505.931 273.736C509.419 273.736 512.267 272.36 512.267 268.616C512.267 264.776 509.419 263.368 505.931 263.368C502.507 263.368 499.659 264.776 499.659 268.616ZM492.459 283.176C491.979 282.664 492.491 281.864 493.067 282.152C493.611 282.408 494.923 282.408 496.619 282.408H500.363V279.336C500.363 278.056 500.171 277.8 498.699 277.384C498.091 277.224 498.283 276.104 499.051 276.2L502.091 276.52C502.731 276.584 502.667 277 502.667 277.224C502.667 277.512 502.571 277.928 502.571 278.792V282.408H510.219V279.208C510.219 277.928 509.995 277.64 508.555 277.224C507.947 277.064 508.139 275.944 508.907 276.04L511.947 276.392C512.587 276.456 512.523 276.872 512.523 277.096C512.523 277.384 512.427 277.8 512.427 278.664V282.408H518.059C518.635 282.408 518.891 282.28 519.179 282.28C519.563 282.28 519.723 282.504 519.723 282.888C519.723 283.528 518.987 284.168 518.059 284.168H496.619C495.627 284.168 494.955 284.328 494.443 284.328C493.899 284.328 493.195 283.976 492.459 283.176Z" fill="#ABB8CE"/>
<path d="M545.96 278.76H542.856L541.416 284.328C541.288 284.776 541 285 540.552 285H539.784C539.336 285 539.176 284.776 539.304 284.328L540.744 278.76H536.264L534.824 284.328C534.696 284.776 534.408 285 533.96 285H533.192C532.744 285 532.584 284.776 532.712 284.328L534.152 278.76H531.56C531.112 278.76 530.856 278.536 530.984 278.12L531.176 277.48C531.304 277.096 531.464 277 531.912 277H534.6L535.816 272.232H532.808C532.36 272.232 532.104 272.008 532.232 271.592L532.424 270.952C532.552 270.568 532.712 270.472 533.16 270.472H536.264L537.736 264.872C537.864 264.424 538.152 264.2 538.6 264.2H539.368C539.816 264.2 539.976 264.424 539.848 264.872L538.376 270.472H542.856L544.328 264.872C544.456 264.424 544.744 264.2 545.192 264.2H545.96C546.408 264.2 546.568 264.424 546.44 264.872L544.968 270.472H547.56C548.008 270.472 548.264 270.696 548.136 271.112L547.944 271.752C547.816 272.136 547.656 272.232 547.208 272.232H544.52L543.304 277H546.312C546.76 277 547.016 277.224 546.888 277.64L546.696 278.28C546.568 278.664 546.408 278.76 545.96 278.76ZM537.928 272.232L536.712 277H541.192L542.408 272.232H537.928ZM564.589 280.008H554.765C553.357 280.008 552.621 279.08 552.621 277.8V267.208C552.621 266.088 552.493 265.8 551.245 265.576C550.541 265.48 550.829 264.328 551.341 264.328H562.893C563.949 264.296 564.301 264.136 564.749 264.136C565.293 264.136 566.029 264.712 566.029 265.128C566.029 265.416 565.933 265.832 565.933 266.696V278.728C565.933 279.272 565.325 280.008 564.589 280.008ZM554.829 277.512C554.829 277.992 555.053 278.248 555.533 278.248H563.725V266.088H554.829V277.512ZM577.005 273.224H573.645V286.664C573.645 287.912 573.229 289.096 572.237 289.096C571.757 289.096 571.437 288.616 571.437 287.464V263.368C571.437 261.864 570.797 261.448 569.165 261.032C568.557 260.872 568.877 259.752 569.549 259.848L573.165 260.36C573.837 260.456 573.773 260.84 573.773 261.064C573.773 261.32 573.645 261.864 573.645 262.76V271.464H577.005C577.613 271.464 577.837 271.336 578.125 271.336C578.381 271.336 578.669 271.656 578.669 271.944C578.669 272.456 577.709 273.224 577.005 273.224ZM600.186 290.152H587.482C586.074 290.152 585.338 289.224 585.338 287.944V283.208C585.338 282.088 585.21 281.8 583.962 281.576C583.258 281.48 583.546 280.328 584.058 280.328H598.106C599.482 280.328 599.866 280.136 600.346 280.136C600.89 280.136 601.626 280.712 601.626 281.128C601.626 281.416 601.53 281.832 601.53 282.696V288.872C601.53 289.416 600.922 290.152 600.186 290.152ZM584.89 266.376C584.89 262.216 588.634 260.68 593.306 260.68C598.01 260.68 601.786 262.216 601.786 266.376C601.786 270.472 598.01 271.976 593.306 271.976C588.634 271.976 584.89 270.472 584.89 266.376ZM587.161 266.408C587.161 269.224 589.946 270.248 593.306 270.248C596.762 270.248 599.546 269.224 599.546 266.408C599.546 263.464 596.762 262.408 593.306 262.408C589.946 262.408 587.161 263.464 587.161 266.408ZM587.546 287.656C587.546 288.136 587.77 288.392 588.25 288.392H599.322V282.088H587.546V287.656ZM579.834 275.752C579.354 275.24 579.866 274.44 580.442 274.728C580.986 274.984 582.298 274.984 583.994 274.984H605.434C606.01 274.984 606.266 274.856 606.554 274.856C606.938 274.856 607.098 275.08 607.098 275.464C607.098 276.104 606.362 276.744 605.434 276.744H583.994C583.002 276.744 582.33 276.904 581.818 276.904C581.274 276.904 580.57 276.552 579.834 275.752ZM632.87 262.76V286.664C632.87 287.912 632.454 289.096 631.462 289.096C630.982 289.096 630.662 288.616 630.662 287.464V263.368C630.662 261.864 630.022 261.448 628.39 261.032C627.782 260.872 628.102 259.752 628.774 259.848L632.39 260.36C633.062 260.456 632.998 260.84 632.998 261.064C632.998 261.32 632.87 261.864 632.87 262.76ZM610.502 272.072C610.502 266.024 613.766 263.752 617.734 263.752C621.702 263.752 624.998 266.024 624.998 272.072C624.998 278.12 621.702 280.328 617.734 280.328C613.766 280.328 610.502 278.12 610.502 272.072ZM612.806 272.104C612.806 276.904 615.078 278.6 617.734 278.6C620.422 278.6 622.694 276.904 622.694 272.104C622.694 267.24 620.422 265.48 617.734 265.48C615.078 265.48 612.806 267.24 612.806 272.104ZM654.675 277C654.611 277.448 654.003 277.864 653.491 277.384C651.923 275.944 650.099 274.536 647.571 272.744C645.235 274.792 642.355 276.424 638.995 277.768C638.387 278.024 637.683 277.064 638.259 276.776C643.283 274.312 647.123 271.016 649.619 266.856H643.443C642.451 266.856 641.779 267.016 641.266 267.016C640.723 267.016 640.019 266.664 639.283 265.864C638.803 265.352 639.315 264.552 639.891 264.84C640.435 265.096 641.747 265.096 643.443 265.096H648.915C650.259 265.096 650.771 264.904 651.219 264.904C651.763 264.904 652.499 265.544 652.499 265.896C652.499 266.248 652.211 266.856 651.891 267.432C651.027 268.936 650.003 270.312 648.787 271.56C650.707 272.904 652.307 273.96 654.099 275.016C654.451 275.4 654.739 276.264 654.675 277ZM660.083 262.76V269.416H663.443C664.051 269.416 664.275 269.288 664.563 269.288C664.819 269.288 665.107 269.608 665.107 269.896C665.107 270.408 664.147 271.176 663.443 271.176H660.083V276.104C660.083 277.352 659.667 278.536 658.675 278.536C658.195 278.536 657.875 278.056 657.875 276.904V263.368C657.875 261.864 657.235 261.448 655.603 261.032C654.995 260.872 655.315 259.752 655.987 259.848L659.603 260.36C660.275 260.456 660.211 260.84 660.211 261.064C660.211 261.32 660.083 261.864 660.083 262.76ZM659.891 282.536V287.944C659.891 289.192 659.475 290.376 658.483 290.376C658.003 290.376 657.683 289.896 657.683 288.744V281.928H646.771C645.779 281.928 645.107 282.088 644.595 282.088C644.051 282.088 643.347 281.736 642.611 280.936C642.099 280.424 642.643 279.656 643.219 279.912C643.763 280.168 645.075 280.168 646.771 280.168H656.371C657.747 280.168 658.227 279.976 658.707 279.976C659.251 279.976 659.987 280.552 659.987 280.968C659.987 281.256 659.891 281.672 659.891 282.536ZM646.195 262.888C644.627 262.888 643.443 262.92 642.099 261.672C641.587 261.192 642.099 260.328 642.707 260.584C643.251 260.84 644.051 261 646.195 261H649.587C649.843 261 650.099 261.384 650.099 261.736C650.099 262.28 648.851 262.888 646.195 262.888ZM687.359 290.12H675.135C673.727 290.12 672.991 289.192 672.991 287.912V282.28C672.991 281 672.767 280.68 671.327 280.328C670.719 280.168 670.911 279.048 671.679 279.144L674.719 279.464C675.359 279.528 675.295 279.944 675.295 280.168C675.295 280.456 675.199 280.872 675.199 281.736V283.208H686.495V281.96C686.495 280.68 686.239 280.36 684.831 279.976C684.223 279.816 684.415 278.696 685.183 278.792L688.223 279.144C688.863 279.208 688.799 279.624 688.799 279.848C688.799 280.136 688.703 280.552 688.703 281.416V288.776V288.84C688.703 289.384 688.095 290.12 687.359 290.12ZM683.583 275.272C683.519 275.72 682.879 276.168 682.399 275.656C680.767 274.024 678.751 272.36 676.447 270.6C674.143 272.84 671.263 274.696 667.711 276.04C667.071 276.296 666.399 275.336 666.975 275.048C672.383 272.36 676.127 268.712 678.463 264.168H672.543C671.551 264.168 670.879 264.328 670.367 264.328C669.823 264.328 669.119 263.976 668.383 263.176C667.903 262.664 668.415 261.864 668.991 262.152C669.535 262.408 670.847 262.408 672.543 262.408H677.759C679.103 262.408 679.615 262.216 680.063 262.216C680.607 262.216 681.343 262.856 681.343 263.208C681.343 263.56 681.055 264.168 680.735 264.744C679.871 266.408 678.847 267.944 677.631 269.352C679.423 270.76 681.215 272.04 682.975 273.224C683.327 273.608 683.647 274.536 683.583 275.272ZM688.895 262.76V267.976H692.255C692.863 267.976 693.087 267.848 693.375 267.848C693.631 267.848 693.919 268.168 693.919 268.456C693.919 268.968 692.959 269.736 692.255 269.736H688.895V275.144C688.895 276.392 688.479 277.576 687.487 277.576C687.007 277.576 686.687 277.096 686.687 275.944V263.368C686.687 261.864 686.047 261.448 684.415 261.032C683.807 260.872 684.127 259.752 684.799 259.848L688.415 260.36C689.087 260.456 689.023 260.84 689.023 261.064C689.023 261.32 688.895 261.864 688.895 262.76ZM675.903 288.36H686.495V284.968H675.199V287.624C675.199 288.104 675.423 288.36 675.903 288.36ZM697.228 271.752C697.228 268.328 700.236 267.016 703.948 267.016C707.692 267.016 710.732 268.328 710.732 271.752C710.732 275.176 707.692 276.456 703.948 276.456C700.236 276.456 697.228 275.176 697.228 271.752ZM716.332 278.472C716.876 278.472 717.612 279.048 717.612 279.464C717.612 279.752 717.516 280.168 717.516 281.032V283.944C717.516 284.456 717.068 285.192 716.332 285.192H703.884V287.656C703.884 288.136 704.108 288.392 704.588 288.392H717.068C717.676 288.392 718.06 288.232 718.348 288.232C718.604 288.232 718.892 288.552 718.892 288.84C718.892 289.352 717.836 290.12 717.068 290.12H703.82C702.411 290.12 701.676 289.192 701.676 287.912V286.152C701.676 285.16 701.58 284.84 700.3 284.68C699.596 284.584 699.852 283.464 700.396 283.464H715.308V280.392H704.62C703.628 280.392 702.956 280.552 702.444 280.552C701.9 280.552 701.196 280.2 700.46 279.4C699.948 278.888 700.492 278.152 701.068 278.408C701.612 278.664 702.924 278.664 704.62 278.664H714.476C715.532 278.632 715.884 278.472 716.332 278.472ZM717.708 262.76V268.808H721.068C721.676 268.808 721.9 268.68 722.188 268.68C722.444 268.68 722.732 269 722.732 269.288C722.732 269.8 721.772 270.568 721.068 270.568H717.708V274.856C717.708 276.104 717.292 277.288 716.3 277.288C715.82 277.288 715.5 276.808 715.5 275.656V263.368C715.5 261.864 714.86 261.448 713.228 261.032C712.62 260.872 712.94 259.752 713.612 259.848L717.228 260.36C717.9 260.456 717.836 260.84 717.836 261.064C717.836 261.32 717.708 261.864 717.708 262.76ZM699.5 271.784C699.5 273.992 701.548 274.728 703.948 274.728C706.444 274.728 708.492 273.992 708.492 271.784C708.492 269.512 706.444 268.776 703.948 268.776C701.548 268.776 699.5 269.512 699.5 271.784ZM710.732 265.736H699.5C698.508 265.736 697.836 265.896 697.324 265.896C696.78 265.896 696.076 265.512 695.34 264.712C694.86 264.2 695.372 263.464 695.948 263.752C696.492 264.008 697.804 264.008 699.5 264.008H710.732C711.308 264.008 711.564 263.88 711.852 263.88C712.108 263.88 712.396 264.168 712.396 264.456C712.396 265 711.436 265.736 710.732 265.736ZM703.82 262.376C702.252 262.376 700.684 262.408 699.34 261.16C698.828 260.68 699.34 259.816 699.948 260.072C700.492 260.328 701.676 260.488 703.82 260.488H707.596C707.852 260.488 708.108 260.872 708.108 261.224C708.108 261.768 706.476 262.376 703.82 262.376ZM743.096 263.4V271.752H747.064V263.336C747.064 261.832 746.808 261.448 745.176 261.032C744.568 260.872 744.888 259.752 745.56 259.848L748.696 260.328C749.368 260.424 749.304 260.808 749.304 261.032C749.304 261.288 749.176 261.832 749.176 262.728V286.696C749.176 287.944 748.76 289.064 747.832 289.064C747.416 289.064 747.064 288.584 747.064 287.464V273.48H743.096V285.448C743.096 286.696 742.68 287.816 741.784 287.816C741.368 287.816 741.016 287.336 741.016 286.216V278.824C739.224 279.72 737.24 280.36 735.032 280.68C733.976 280.84 733.304 280.232 733.016 279.4C731.544 280.136 729.816 280.552 727.832 280.68C726.424 280.776 725.688 279.752 725.688 278.472V267.56C725.688 266.44 725.592 266.088 724.504 265.928C723.8 265.832 724.088 264.68 724.6 264.68H729.368C729.976 264.68 730.2 264.552 730.488 264.552C730.744 264.552 731.032 264.872 731.032 265.16C731.032 265.672 730.072 266.44 729.368 266.44H727.8V278.024C727.8 278.504 728.024 278.76 728.504 278.76C729.816 278.76 731.384 278.536 732.888 278.088V267.56C732.888 266.44 732.824 266.088 731.928 265.928C731.224 265.8 731.512 264.68 732.024 264.68H737.56C738.168 264.68 738.392 264.552 738.68 264.552C738.936 264.552 739.224 264.872 739.224 265.16C739.224 265.672 738.264 266.44 737.56 266.44H735V278.024C735 278.504 735.224 278.792 735.704 278.76C737.4 278.6 739.128 278.152 741.016 277.48V263.976C741.016 262.536 740.824 262.152 739.256 261.736C738.68 261.576 738.968 260.488 739.64 260.584L742.616 261C743.288 261.096 743.224 261.48 743.224 261.704C743.224 261.96 743.096 262.504 743.096 263.4Z" fill="#ABB8CE"/>
<rect x="-77" y="40" width="128" height="128" rx="32" fill="#AFBACD" fill-opacity="0.15"/>
<g clip-path="url(#clip1_0_10368)">
<path d="M-13 136C4.67311 136 19 121.673 19 104C19 86.3269 4.67311 72 -13 72C-30.6731 72 -45 86.3269 -45 104C-45 121.673 -30.6731 136 -13 136Z" fill="#DDE2E9"/>
<path d="M-9.64748 92.1185C-10.1105 93.8566 -9.89071 95.6192 -8.94877 97.6707C-8.10977 99.5063 -6.73027 101.508 -5.13103 103.825C-4.5853 104.617 -3.97016 105.516 -3.33307 106.463C-3.16394 106.714 -2.9105 106.896 -2.6188 106.975C-2.32535 107.056 -2.01228 107.026 -1.7403 106.889C-0.712498 106.383 0.250256 105.905 1.13932 105.504C3.6828 104.295 5.87835 103.251 7.52252 102.085C9.36288 100.776 10.4356 99.3612 10.9028 97.6219C11.3643 96.0095 11.1994 94.2822 10.4412 92.7862C10.0727 92.0769 9.55919 91.453 8.93408 90.9549C8.30897 90.4568 7.58616 90.0956 6.8125 89.8947C5.63848 89.5731 4.38978 89.6627 3.27369 90.1486C2.67023 90.403 2.10696 90.7437 1.60157 91.1602C1.37218 90.5471 1.05656 89.9697 0.664245 89.4456C-0.0607054 88.4744 -1.09293 87.7769 -2.26456 87.4667C-3.0354 87.2553 -3.84191 87.2074 -4.63235 87.3261C-5.42278 87.4447 -6.1797 87.7272 -6.85454 88.1555C-8.25014 89.0789 -9.24718 90.4937 -9.64748 92.1185Z" fill="#BABFC8"/>
</g>
<path d="M-16.3281 187.898V192.727H-13.375V194.859H-16.3281V199.805H-18.9297V187.898H-16.3281ZM-22.2109 189.188C-22.2344 194.695 -25.8438 198.516 -32.1719 200.203L-33.2031 198.117C-28.293 196.852 -25.5039 194.355 -25.0469 191.297H-32.1953V189.188H-22.2109ZM-16.3281 200.648V208.805H-30.0391V200.648H-16.3281ZM-27.4375 202.781V206.742H-18.9062V202.781H-27.4375ZM7.03906 198.047V200.133H-12.2969V198.047H-3.90625V196.031H-9.92969V188.859H4.69531V190.898H-7.32812V193.969H4.8125V196.031H-1.35156V198.047H7.03906ZM-2.66406 201.352C1.90625 201.352 4.64844 202.734 4.67188 205.219C4.64844 207.68 1.90625 209.086 -2.66406 209.086C-7.28125 209.086 -10.0469 207.68 -10.0469 205.219C-10.0469 202.734 -7.28125 201.352 -2.66406 201.352ZM-2.66406 203.344C-5.75781 203.344 -7.42188 204 -7.39844 205.219C-7.42188 206.438 -5.75781 207.07 -2.66406 207.07C0.359375 207.07 2.04688 206.438 2.07031 205.219C2.04688 204 0.359375 203.344 -2.66406 203.344Z" fill="#999999"/>
<rect x="67" y="40" width="128" height="128" rx="32" fill="#AFBACD" fill-opacity="0.15"/>
<g clip-path="url(#clip2_0_10368)">
<path d="M131 136C148.673 136 163 121.673 163 104C163 86.3269 148.673 72 131 72C113.327 72 99 86.3269 99 104C99 121.673 113.327 136 131 136Z" fill="#DDE2E9"/>
<path d="M122.75 101C124.683 101 126.25 99.433 126.25 97.5C126.25 95.567 124.683 94 122.75 94C120.817 94 119.25 95.567 119.25 97.5C119.25 99.433 120.817 101 122.75 101Z" fill="#BABFC8"/>
<path d="M139.25 101C141.183 101 142.75 99.433 142.75 97.5C142.75 95.567 141.183 94 139.25 94C137.317 94 135.75 95.567 135.75 97.5C135.75 99.433 137.317 101 139.25 101Z" fill="#BABFC8"/>
<path d="M145 111.875C142.351 116.783 137.104 120.125 131.062 120.125C125.021 120.125 119.774 116.783 117.125 111.875" stroke="#BABFC8" stroke-width="4.30107" stroke-linecap="round"/>
</g>
<path d="M128.656 187.898V209.086H126.031V187.898H128.656ZM122.328 190.148C122.328 196.453 119.891 201.82 112.461 205.336L111.102 203.25C116.645 200.613 119.223 197.027 119.68 192.211H112.18V190.148H122.328ZM135.781 188.414V190.477H138.219V188.414H140.656V196.57H133.32V188.414H135.781ZM135.781 194.484H138.219V192.469H135.781V194.484ZM144.523 188.414V190.477H146.914V188.414H149.398V196.57H142.039V188.414H144.523ZM144.523 194.484H146.914V192.469H144.523V194.484ZM151.016 198.188V200.297H131.703V198.188H151.016ZM148.648 201.984V208.828H133.977V201.984H148.648ZM136.531 204.047V206.719H146.094V204.047H136.531Z" fill="#999999"/>
<rect x="211" y="40" width="128" height="128" rx="32" fill="#AFBACD" fill-opacity="0.15"/>
<path d="M275 136C292.673 136 307 121.673 307 104C307 86.3269 292.673 72 275 72C257.327 72 243 86.3269 243 104C243 121.673 257.327 136 275 136Z" fill="#DDE2E9"/>
<path d="M270.771 127.119L270.405 125.313L275.042 124.369C275.388 124.293 275.714 124.145 276 123.936C276.286 123.727 276.525 123.461 276.703 123.155C277.069 122.558 277.2 121.846 277.068 121.158C277.066 121.129 277.066 121.1 277.068 121.07C276.903 120.4 276.488 119.818 275.909 119.443C275.623 119.251 275.302 119.117 274.965 119.05C274.627 118.982 274.279 118.981 273.942 119.048L260.915 121.7C260.813 121.723 260.708 121.725 260.606 121.705C260.504 121.685 260.407 121.643 260.322 121.582C260.157 121.465 260.041 121.29 259.997 121.092C259.97 120.956 259.98 120.814 260.026 120.683L261.142 117.545V117.516C261.278 117.005 261.282 116.467 261.153 115.954C261.024 115.441 260.767 114.97 260.404 114.584C260.042 114.198 259.588 113.912 259.084 113.751C258.58 113.59 258.043 113.56 257.525 113.665C257.098 113.751 256.694 113.925 256.34 114.177C255.985 114.429 255.687 114.753 255.466 115.128L252.43 120.284C250.836 122.996 250.301 126.202 250.931 129.284C251.504 132.107 253.174 134.586 255.574 136.177C257.974 137.768 260.908 138.34 263.731 137.769C266.077 137.293 268.139 135.904 269.462 133.909C270.785 131.913 271.261 129.473 270.785 127.127L270.771 127.119Z" fill="#BABFC8"/>
<path d="M287.047 89.0004C287.047 89.0004 284.866 89.4016 282.309 90.9561C279.752 92.5107 278.125 93.9531 278.125 93.9531" stroke="#BABFC8" stroke-width="3.58423" stroke-linecap="round" stroke-linejoin="round"/>
<path d="M260.875 97.0158C260.875 97.0158 262.995 96.5323 265.984 96.3976C267.039 96.3501 267.983 96.4059 268.764 96.498" stroke="#BABFC8" stroke-width="3.58423" stroke-linecap="round" stroke-linejoin="round"/>
<path d="M265.75 106C267.683 106 269.25 104.433 269.25 102.5C269.25 100.567 267.683 99 265.75 99C263.817 99 262.25 100.567 262.25 102.5C262.25 104.433 263.817 106 265.75 106Z" fill="#BABFC8"/>
<rect x="281.625" y="96" width="5.375" height="9.375" rx="2.6875" fill="#BABFC8"/>
<path d="M282.827 116.02C280.182 114.229 276.875 113.394 273.461 113.919C272.768 114.025 272.095 114.184 271.447 114.391" stroke="#BABFC8" stroke-width="4.30107" stroke-linecap="round"/>
<path d="M272.258 189.844V191.883C272.234 194.508 272.234 197.461 271.414 201.891L268.789 201.609C269.609 197.484 269.609 194.473 269.633 191.93H256.977V189.844H272.258ZM274.273 204.211V206.344H254.961V204.211H262.086V196.852H264.664V204.211H274.273ZM287 189.656V199.734H276.781V189.656H287ZM279.359 191.742V197.648H284.422V191.742H279.359ZM293.352 187.922V203.039H290.727V187.922H293.352ZM293.938 206.414V208.523H279.336V201.609H281.961V206.414H293.938Z" fill="#999999"/>
<rect x="358" y="43" width="122" height="122" rx="29" stroke="#5195EE" stroke-width="6"/>
<g clip-path="url(#clip3_0_10368)">
<path d="M419 136C436.673 136 451 121.673 451 104C451 86.3269 436.673 72 419 72C401.327 72 387 86.3269 387 104C387 121.673 401.327 136 419 136Z" fill="#FBC85B"/>
<path d="M412.772 118.161C412.772 121.855 409.993 124.846 406.555 124.846C403.117 124.846 400.338 121.855 400.338 118.161C400.338 115.235 404.211 109.936 405.823 107.833C405.905 107.722 406.011 107.632 406.134 107.569C406.257 107.507 406.393 107.475 406.531 107.475C406.669 107.475 406.805 107.507 406.928 107.569C407.051 107.632 407.157 107.722 407.239 107.833C408.899 109.936 412.772 115.246 412.772 118.161Z" fill="#5195EE"/>
<path d="M410.75 101C412.683 101 414.25 99.433 414.25 97.5C414.25 95.567 412.683 94 410.75 94C408.817 94 407.25 95.567 407.25 97.5C407.25 99.433 408.817 101 410.75 101Z" fill="#3E414D"/>
<path d="M427.25 101C429.183 101 430.75 99.433 430.75 97.5C430.75 95.567 429.183 94 427.25 94C425.317 94 423.75 95.567 423.75 97.5C423.75 99.433 425.317 101 427.25 101Z" fill="#3E414D"/>
<path d="M428 118.75C425.658 116.579 422.516 115.25 419.062 115.25C418.361 115.25 417.672 115.305 417 115.41" stroke="#9A695E" stroke-width="4.30107" stroke-linecap="round"/>
</g>
<path d="M409.953 188.648C409.953 190.898 412.836 193.031 417.289 193.5L416.375 195.469C412.812 195.035 409.965 193.594 408.617 191.531C407.234 193.594 404.398 195.035 400.836 195.469L399.945 193.5C404.375 193.031 407.258 190.898 407.281 188.648V188.062H409.953V188.648ZM418.273 196.453V198.562H398.961V196.453H418.273ZM415.859 200.062V205.312H403.812V206.906H416.445V208.898H401.258V203.461H413.305V202.008H401.234V200.062H415.859ZM439.016 198.141V200.25H419.703V198.141H439.016ZM437.234 188.625V190.734H434.328V194.414H437.117V196.5H421.555V194.414H424.344V190.734H421.438V188.625H437.234ZM436.672 202.031V208.828H421.977V202.031H436.672ZM424.555 204.07V206.719H434.141V204.07H424.555ZM426.945 194.414H431.703V190.734H426.945V194.414Z" fill="#3E3E3E"/>
<rect x="499" y="40" width="128" height="128" rx="32" fill="#AFBACD" fill-opacity="0.15"/>
<path d="M563 136C580.673 136 595 121.673 595 104C595 86.3269 580.673 72 563 72C545.327 72 531 86.3269 531 104C531 121.673 545.327 136 563 136Z" fill="#DDE2E9"/>
<path d="M584.677 110.193H541.323C540.182 110.193 539.258 111.118 539.258 112.258V126.709C539.258 127.85 540.182 128.774 541.323 128.774H584.677C585.818 128.774 586.742 127.85 586.742 126.709V112.258C586.742 111.118 585.818 110.193 584.677 110.193Z" fill="#BABFC8"/>
<path d="M580.46 122.064L581.278 121.246C581.681 120.842 581.681 120.189 581.278 119.786C580.875 119.383 580.222 119.383 579.818 119.786L579 120.605L578.277 119.881C579.025 119.315 579.516 118.427 579.516 117.419C579.516 115.711 578.127 114.322 576.419 114.322C574.712 114.322 573.323 115.711 573.323 117.419C573.323 117.75 573.388 118.063 573.485 118.362C572.664 119.11 572.208 120.21 572.303 121.344C572.461 123.195 574.11 124.645 576.058 124.645C577.136 124.645 578.183 124.225 578.983 123.507L579.818 124.342C580.02 124.544 580.284 124.645 580.548 124.645C580.812 124.645 581.077 124.544 581.278 124.342C581.681 123.939 581.681 123.286 581.278 122.883L580.46 122.064ZM576.419 116.387C576.989 116.387 577.452 116.85 577.452 117.419C577.452 117.989 576.989 118.451 576.419 118.451C575.85 118.451 575.387 117.989 575.387 117.419C575.387 116.849 575.85 116.387 576.419 116.387ZM576.058 122.58C575.188 122.58 574.426 121.947 574.36 121.171C574.324 120.736 574.47 120.327 574.743 120.016C575.1 120.247 575.507 120.4 575.944 120.468L577.524 122.048C577.111 122.383 576.593 122.58 576.058 122.58Z" fill="#EBEFF4"/>
<path d="M553.296 114.528C552.841 114.188 552.193 114.278 551.852 114.735L545.658 122.993C545.316 123.449 545.408 124.096 545.865 124.438C546.05 124.577 546.267 124.644 546.483 124.644C546.797 124.644 547.107 124.502 547.31 124.231L553.503 115.973C553.846 115.517 553.753 114.87 553.296 114.528Z" fill="#EBEFF4"/>
<path d="M557.839 121.548C558.41 121.548 558.871 121.086 558.871 120.516V115.355C558.871 114.784 558.409 114.322 557.839 114.322C557.268 114.322 556.807 114.784 556.807 115.355V120.516C556.807 121.086 557.268 121.548 557.839 121.548Z" fill="#EBEFF4"/>
<path d="M557.839 122.58C557.268 122.58 556.807 123.042 556.807 123.612C556.807 124.183 557.268 124.645 557.839 124.645H557.849C558.42 124.645 558.876 124.183 558.876 123.612C558.876 123.042 558.409 122.58 557.839 122.58Z" fill="#EBEFF4"/>
<path d="M570.226 116.386H569.999L570.195 115.604C570.334 115.052 569.997 114.491 569.444 114.353C568.89 114.21 568.331 114.55 568.193 115.104L567.872 116.386H565.87L566.066 115.604C566.205 115.052 565.868 114.491 565.315 114.353C564.759 114.21 564.201 114.55 564.064 115.104L563.743 116.386H563C562.429 116.386 561.968 116.848 561.968 117.419C561.968 117.989 562.43 118.451 563 118.451H563.227L562.711 120.515H561.968C561.397 120.515 560.936 120.977 560.936 121.548C560.936 122.118 561.397 122.58 561.968 122.58H562.195L561.999 123.362C561.86 123.914 562.197 124.475 562.75 124.613C562.834 124.634 562.918 124.644 563.001 124.644C563.464 124.644 563.884 124.332 564.001 123.862L564.322 122.58H566.324L566.128 123.362C565.989 123.914 566.326 124.475 566.879 124.613C566.963 124.634 567.047 124.644 567.13 124.644C567.593 124.644 568.013 124.332 568.13 123.862L568.451 122.58H569.194C569.764 122.58 570.226 122.118 570.226 121.548C570.226 120.977 569.764 120.515 569.194 120.515H568.967L569.483 118.451H570.226C570.797 118.451 571.258 117.989 571.258 117.419C571.258 116.848 570.796 116.386 570.226 116.386ZM566.84 120.515H564.838L565.354 118.451H567.356L566.84 120.515Z" fill="#EBEFF4"/>
<path d="M548.548 116.387C548.548 115.249 547.622 114.322 546.484 114.322C545.346 114.322 544.419 115.249 544.419 116.387C544.419 117.525 545.346 118.451 546.484 118.451C547.622 118.451 548.548 117.525 548.548 116.387Z" fill="#EBEFF4"/>
<path d="M552.677 120.516C551.539 120.516 550.613 121.442 550.613 122.58C550.613 123.718 551.539 124.645 552.677 124.645C553.815 124.645 554.742 123.718 554.742 122.58C554.742 121.442 553.815 120.516 552.677 120.516Z" fill="#EBEFF4"/>
<path d="M578.682 89.4316C578.33 88.9207 577.745 88.9024 577.12 89.1422C577.12 89.1422 574.293 90.4362 572.558 90.877C570.822 91.3178 567.995 91.725 567.995 91.725C567.428 91.8367 566.785 92.3238 566.823 92.9439C566.86 93.5641 567.393 94.0367 568.013 93.9994L568.13 93.9912C568.201 93.9858 568.304 93.9774 568.435 93.9651C568.697 93.9406 569.074 93.9005 569.543 93.8378C570.48 93.7124 571.79 93.4958 573.29 93.13C574.838 92.7524 576.099 92.2288 576.977 91.7972C577.416 91.581 577.762 91.387 578.001 91.2441C578.121 91.1727 578.215 91.1139 578.281 91.0714L578.395 90.9963C578.906 90.6438 579.035 89.9432 578.682 89.4316Z" fill="#BABFC8"/>
<path d="M547.29 89.4316C547.642 88.9207 548.227 88.9024 548.852 89.1422C548.852 89.1422 551.679 90.4362 553.415 90.877C555.15 91.3178 557.977 91.725 557.977 91.725C558.544 91.8367 559.187 92.3238 559.15 92.9439C559.112 93.5641 558.579 94.0367 557.959 93.9994L557.842 93.9912C557.771 93.9858 557.669 93.9774 557.537 93.9651C557.275 93.9406 556.898 93.9005 556.429 93.8378C555.492 93.7124 554.182 93.4958 552.682 93.13C551.134 92.7524 549.873 92.2288 548.996 91.7972C548.556 91.581 548.211 91.387 547.971 91.2441C547.851 91.1727 547.757 91.1139 547.691 91.0714L547.578 90.9963C547.066 90.6438 546.937 89.9432 547.29 89.4316Z" fill="#BABFC8"/>
<path d="M554.75 104C556.683 104 558.25 102.433 558.25 100.5C558.25 98.567 556.683 97 554.75 97C552.817 97 551.25 98.567 551.25 100.5C551.25 102.433 552.817 104 554.75 104Z" fill="#BABFC8"/>
<path d="M571.25 104C573.183 104 574.75 102.433 574.75 100.5C574.75 98.567 573.183 97 571.25 97C569.317 97 567.75 98.567 567.75 100.5C567.75 102.433 569.317 104 571.25 104Z" fill="#BABFC8"/>
<path d="M562.297 198.867V200.953H554.117V204.609H551.539V200.953H542.938V198.867H562.297ZM560.164 206.555V208.664H545.281V202.828H547.859V206.555H560.164ZM548.047 188.578V190.969H557.188V188.578H559.766V197.203H545.469V188.578H548.047ZM548.047 195.141H557.188V192.914H548.047V195.141ZM580.93 197.203V199.312H574.672V204.445H583.062V206.555H563.703V204.445H572.047V199.312H565.93V189.586H568.602V197.203H580.93Z" fill="#999999"/>
</g>
<rect x="0.5" y="0.5" width="743" height="387" rx="15.5" stroke="#D2D9E3"/>
<defs>
<clipPath id="clip0_0_10368">
<rect width="744" height="388" rx="16" fill="white"/>
</clipPath>
<clipPath id="clip1_0_10368">
<rect width="64" height="64" fill="white" transform="translate(-45 72)"/>
</clipPath>
<clipPath id="clip2_0_10368">
<rect width="64" height="64" fill="white" transform="translate(99 72)"/>
</clipPath>
<clipPath id="clip3_0_10368">
<rect width="64" height="64" fill="white" transform="translate(387 72)"/>
</clipPath>
</defs>
</svg>
