<svg width="744" height="388" viewBox="0 0 744 388" fill="none" xmlns="http://www.w3.org/2000/svg">
<g clip-path="url(#clip0_0_10369)">
<rect width="744" height="388" rx="16" fill="#ECEFF4"/>
<rect x="456" y="100.199" width="14.4" height="14.4" rx="3.6" fill="#48BB98"/>
<g clip-path="url(#clip1_0_10369)">
<path d="M499.2 121.8C507.153 121.8 513.6 115.353 513.6 107.4C513.6 99.4471 507.153 93 499.2 93C491.247 93 484.8 99.4471 484.8 107.4C484.8 115.353 491.247 121.8 499.2 121.8Z" fill="#FBC85B"/>
<path d="M495.488 106.05C496.357 106.05 497.063 105.345 497.063 104.475C497.063 103.606 496.357 102.9 495.488 102.9C494.618 102.9 493.913 103.606 493.913 104.475C493.913 105.345 494.618 106.05 495.488 106.05Z" fill="#3E414D"/>
<path d="M502.913 106.05C503.782 106.05 504.488 105.345 504.488 104.475C504.488 103.606 503.782 102.9 502.913 102.9C502.043 102.9 501.338 103.606 501.338 104.475C501.338 105.345 502.043 106.05 502.913 106.05Z" fill="#3E414D"/>
<path d="M505.5 110.943C504.308 113.152 501.947 114.656 499.228 114.656C496.51 114.656 494.148 113.152 492.956 110.943" stroke="#9A695E" stroke-width="1.93549" stroke-linecap="round"/>
</g>
<path d="M534.771 115.611C531.607 115.611 529.35 113.903 529.266 111.414H531.628C531.713 112.764 533.041 113.607 534.75 113.607C536.585 113.607 537.935 112.595 537.935 111.118C537.935 109.621 536.67 108.524 534.497 108.524H533.189V106.625H534.497C536.227 106.625 537.45 105.655 537.45 104.2C537.45 102.807 536.416 101.858 534.792 101.858C533.252 101.858 531.902 102.702 531.839 104.094H529.603C529.666 101.605 531.966 99.9176 534.813 99.9176C537.809 99.9176 539.707 101.816 539.686 104.073C539.707 105.803 538.631 107.068 536.986 107.469V107.575C539.074 107.87 540.277 109.262 540.277 111.203C540.277 113.755 537.935 115.611 534.771 115.611ZM548.018 115.611C545.128 115.611 542.955 113.839 542.85 111.414H545.107C545.234 112.721 546.478 113.671 548.018 113.671C549.874 113.671 551.203 112.321 551.203 110.507C551.203 108.65 549.832 107.3 547.913 107.279C546.689 107.279 545.761 107.68 545.234 108.629H543.04L544.031 100.128H552.68V102.111H545.951L545.445 106.393H545.592C546.225 105.782 547.301 105.36 548.461 105.36C551.33 105.36 553.46 107.49 553.46 110.443C553.46 113.46 551.203 115.611 548.018 115.611ZM559.43 107.385C557.341 107.406 556.202 105.845 556.223 103.588C556.202 101.352 557.384 99.8121 559.43 99.8121C561.518 99.8121 562.636 101.352 562.636 103.588C562.636 105.866 561.476 107.406 559.43 107.385ZM559.43 105.908C560.421 105.908 560.885 104.98 560.885 103.588C560.885 102.217 560.442 101.289 559.43 101.289C558.459 101.31 557.953 102.217 557.953 103.588C557.953 104.98 558.438 105.908 559.43 105.908ZM569.07 115.717C566.981 115.717 565.842 114.177 565.863 111.92C565.842 109.663 567.045 108.123 569.07 108.123C571.158 108.123 572.276 109.663 572.276 111.92C572.276 114.177 571.116 115.717 569.07 115.717ZM569.07 114.219C570.061 114.219 570.525 113.291 570.525 111.92C570.525 110.528 570.082 109.6 569.07 109.6C568.099 109.621 567.593 110.549 567.593 111.92C567.593 113.291 568.099 114.219 569.07 114.219ZM557.953 115.4L568.437 100.128H570.356L559.873 115.4H557.953Z" fill="#3E3E3E"/>
<rect x="456" y="143.398" width="14.4" height="14.4" rx="3.6" fill="#FBC85B"/>
<g clip-path="url(#clip2_0_10369)">
<path d="M499.2 164.999C507.153 164.999 513.6 158.552 513.6 150.599C513.6 142.646 507.153 136.199 499.2 136.199C491.247 136.199 484.8 142.646 484.8 150.599C484.8 158.552 491.247 164.999 499.2 164.999Z" fill="#FBC85B"/>
<path d="M504.429 155.799C504.416 156.46 503.836 158.066 501.783 159.06C500.978 159.452 500.095 159.656 499.2 159.656C498.305 159.656 497.422 159.452 496.617 159.06C494.56 158.069 493.984 156.46 493.971 155.799C493.947 155.428 494.137 154.985 494.64 155.127C495.46 155.427 496.748 155.604 497.747 155.696C498.714 155.787 499.686 155.787 500.653 155.696C501.652 155.6 502.94 155.427 503.76 155.127C504.263 154.985 504.453 155.428 504.429 155.799Z" fill="#9A695E"/>
<path d="M500.709 145.253C500.5 146.036 500.599 146.829 501.023 147.752C501.401 148.578 502.021 149.479 502.741 150.522C502.987 150.878 503.263 151.282 503.55 151.709C503.626 151.821 503.74 151.903 503.872 151.939C504.004 151.976 504.144 151.962 504.267 151.9C504.729 151.673 505.163 151.457 505.563 151.277C506.707 150.733 507.695 150.263 508.435 149.738C509.263 149.149 509.746 148.513 509.956 147.73C510.164 147.004 510.09 146.227 509.749 145.554C509.583 145.235 509.352 144.954 509.07 144.73C508.789 144.506 508.464 144.343 508.116 144.253C507.587 144.108 507.025 144.148 506.523 144.367C506.252 144.481 505.998 144.635 505.771 144.822C505.668 144.546 505.525 144.286 505.349 144.051C505.023 143.614 504.558 143.3 504.031 143.16C503.684 143.065 503.321 143.043 502.965 143.097C502.61 143.15 502.269 143.277 501.965 143.47C501.337 143.886 500.889 144.522 500.709 145.253Z" fill="#E46E80"/>
<path d="M496.431 143.478C496.128 143.285 495.787 143.158 495.431 143.105C495.076 143.051 494.713 143.073 494.366 143.168C493.839 143.308 493.374 143.621 493.048 144.058C492.871 144.294 492.729 144.554 492.626 144.83C492.399 144.643 492.145 144.489 491.874 144.375C491.371 144.156 490.809 144.116 490.281 144.261C489.933 144.351 489.608 144.513 489.326 144.738C489.045 144.962 488.814 145.243 488.648 145.562C488.307 146.235 488.233 147.012 488.44 147.738C488.651 148.52 489.133 149.157 489.962 149.746C490.701 150.271 491.689 150.741 492.834 151.285C493.224 151.471 493.667 151.68 494.13 151.908C494.252 151.969 494.393 151.983 494.525 151.947C494.656 151.911 494.77 151.829 494.847 151.716C495.133 151.29 495.41 150.886 495.656 150.529C496.375 149.487 496.989 148.584 497.374 147.76C497.798 146.837 497.896 146.043 497.688 145.261C497.508 144.53 497.059 143.893 496.431 143.478Z" fill="#E46E80"/>
</g>
<path d="M529.35 158.6V156.912L534.645 151.575C536.311 149.825 537.155 148.854 537.155 147.525C537.155 146.028 535.931 145.057 534.328 145.057C532.641 145.057 531.544 146.133 531.544 147.757H529.35C529.329 144.973 531.459 143.117 534.37 143.117C537.323 143.117 539.348 144.973 539.37 147.462C539.348 149.171 538.547 150.521 535.678 153.347L532.577 156.49V156.617H539.623V158.6H529.35ZM547.512 158.811C543.968 158.811 541.901 155.963 541.901 150.964C541.901 146.007 544.01 143.117 547.512 143.117C551.013 143.117 553.123 146.007 553.123 150.964C553.123 155.963 551.034 158.811 547.512 158.811ZM547.512 156.807C549.579 156.807 550.802 154.782 550.802 150.964C550.802 147.167 549.558 145.079 547.512 145.079C545.466 145.079 544.221 147.167 544.221 150.964C544.221 154.782 545.445 156.807 547.512 156.807ZM559.029 150.584C556.941 150.605 555.802 149.044 555.823 146.787C555.802 144.551 556.983 143.011 559.029 143.011C561.117 143.011 562.235 144.551 562.235 146.787C562.235 149.065 561.075 150.605 559.029 150.584ZM559.029 149.107C560.02 149.107 560.484 148.179 560.484 146.787C560.484 145.416 560.041 144.488 559.029 144.488C558.059 144.509 557.552 145.416 557.552 146.787C557.552 148.179 558.038 149.107 559.029 149.107ZM568.669 158.916C566.581 158.916 565.441 157.376 565.463 155.119C565.441 152.862 566.644 151.322 568.669 151.322C570.757 151.322 571.875 152.862 571.875 155.119C571.875 157.376 570.715 158.916 568.669 158.916ZM568.669 157.418C569.66 157.418 570.124 156.49 570.124 155.119C570.124 153.727 569.681 152.799 568.669 152.799C567.698 152.82 567.192 153.748 567.192 155.119C567.192 156.49 567.698 157.418 568.669 157.418ZM557.552 158.6L568.036 143.328H569.956L559.472 158.6H557.552Z" fill="#C6C6C6"/>
<rect x="456" y="186.6" width="14.4" height="14.4" rx="3.6" fill="#B7C2D2"/>
<path d="M499.2 208.2C507.153 208.2 513.6 201.753 513.6 193.8C513.6 185.848 507.153 179.4 499.2 179.4C491.247 179.4 484.8 185.848 484.8 193.8C484.8 201.753 491.247 208.2 499.2 208.2Z" fill="#FBC85B"/>
<path d="M497.297 204.205L497.132 203.392L499.219 202.968C499.374 202.933 499.521 202.867 499.65 202.773C499.778 202.679 499.886 202.559 499.966 202.421C500.131 202.153 500.19 201.832 500.13 201.523C500.129 201.51 500.129 201.496 500.13 201.483C500.056 201.182 499.869 200.92 499.609 200.751C499.48 200.664 499.336 200.604 499.184 200.574C499.032 200.543 498.875 200.543 498.723 200.573L492.861 201.766C492.816 201.777 492.768 201.778 492.722 201.769C492.676 201.76 492.633 201.741 492.595 201.714C492.52 201.661 492.468 201.582 492.448 201.493C492.436 201.432 492.441 201.368 492.461 201.309L492.963 199.897V199.884C493.025 199.654 493.027 199.412 492.969 199.181C492.911 198.95 492.795 198.738 492.632 198.564C492.469 198.391 492.264 198.262 492.037 198.189C491.811 198.117 491.569 198.104 491.336 198.151C491.144 198.189 490.962 198.268 490.803 198.381C490.643 198.495 490.509 198.64 490.409 198.809L489.043 201.129C488.326 202.35 488.085 203.792 488.369 205.179C488.626 206.449 489.378 207.565 490.458 208.281C491.538 208.997 492.858 209.255 494.129 208.998C495.185 208.783 496.112 208.158 496.707 207.26C497.303 206.362 497.517 205.265 497.303 204.208L497.297 204.205Z" fill="#E8AA26"/>
<path d="M504.621 187.051C504.621 187.051 503.64 187.231 502.489 187.931C501.338 188.631 500.606 189.28 500.606 189.28" stroke="#3E414D" stroke-width="1.6129" stroke-linecap="round" stroke-linejoin="round"/>
<path d="M492.844 190.657C492.844 190.657 493.797 190.44 495.143 190.379C495.617 190.358 496.042 190.383 496.394 190.424" stroke="#3E414D" stroke-width="1.6129" stroke-linecap="round" stroke-linejoin="round"/>
<path d="M495.038 194.701C495.907 194.701 496.613 193.996 496.613 193.126C496.613 192.256 495.907 191.551 495.038 191.551C494.168 191.551 493.463 192.256 493.463 193.126C493.463 193.996 494.168 194.701 495.038 194.701Z" fill="#3E414D"/>
<rect x="502.181" y="190.201" width="2.41875" height="4.21876" rx="1.20938" fill="#494D59"/>
<path d="M502.722 199.209C501.532 198.403 500.044 198.027 498.508 198.264C498.196 198.312 497.893 198.383 497.602 198.476" stroke="#9A695E" stroke-width="1.93549" stroke-linecap="round"/>
<path d="M535.151 186.529V201.801H532.809V188.849H532.725L529.076 191.233V189.018L532.873 186.529H535.151ZM544.284 186.318C547.09 186.339 550.043 188.027 550.043 193.616C550.043 198.974 547.744 202.012 544.073 202.012C541.268 202.012 539.285 200.282 538.927 197.793H541.226C541.542 199.08 542.534 199.987 544.073 199.987C546.436 199.987 547.807 197.92 547.828 194.439H547.638C546.816 195.726 545.381 196.506 543.736 196.506C540.994 196.506 538.8 194.418 538.8 191.486C538.8 188.575 540.973 186.297 544.284 186.318ZM544.284 188.259C542.428 188.259 541.057 189.693 541.057 191.444C541.057 193.216 542.386 194.608 544.242 194.608C546.077 194.608 547.512 193.11 547.512 191.423C547.512 189.777 546.162 188.259 544.284 188.259ZM555.991 193.785C553.903 193.806 552.764 192.245 552.785 189.988C552.764 187.752 553.945 186.212 555.991 186.212C558.08 186.212 559.198 187.752 559.198 189.988C559.198 192.266 558.038 193.806 555.991 193.785ZM555.991 192.309C556.983 192.309 557.447 191.38 557.447 189.988C557.447 188.617 557.004 187.689 555.991 187.689C555.021 187.71 554.515 188.617 554.515 189.988C554.515 191.38 555 192.309 555.991 192.309ZM565.631 202.117C563.543 202.117 562.404 200.577 562.425 198.32C562.404 196.063 563.606 194.523 565.631 194.523C567.72 194.523 568.838 196.063 568.838 198.32C568.838 200.577 567.677 202.117 565.631 202.117ZM565.631 200.62C566.623 200.62 567.087 199.691 567.087 198.32C567.087 196.928 566.644 196 565.631 196C564.661 196.021 564.155 196.949 564.155 198.32C564.155 199.691 564.661 200.62 565.631 200.62ZM554.515 201.801L564.998 186.529H566.918L556.434 201.801H554.515Z" fill="#C6C6C6"/>
<rect x="456" y="229.799" width="14.4" height="14.4" rx="3.6" fill="#D6DCE4"/>
<g clip-path="url(#clip3_0_10369)">
<path d="M499.2 251.4C507.153 251.4 513.6 244.953 513.6 237C513.6 229.047 507.153 222.6 499.2 222.6C491.247 222.6 484.8 229.047 484.8 237C484.8 244.953 491.247 251.4 499.2 251.4Z" fill="#FBC85B"/>
<path d="M496.398 243.371C496.398 245.033 495.147 246.38 493.6 246.38C492.053 246.38 490.802 245.033 490.802 243.371C490.802 242.055 492.545 239.67 493.271 238.724C493.308 238.674 493.355 238.633 493.411 238.605C493.466 238.577 493.527 238.562 493.589 238.562C493.651 238.562 493.712 238.577 493.768 238.605C493.823 238.633 493.871 238.674 493.908 238.724C494.655 239.67 496.398 242.06 496.398 243.371Z" fill="#5195EE"/>
<path d="M495.488 235.65C496.357 235.65 497.063 234.945 497.063 234.075C497.063 233.205 496.357 232.5 495.488 232.5C494.618 232.5 493.913 233.205 493.913 234.075C493.913 234.945 494.618 235.65 495.488 235.65Z" fill="#3E414D"/>
<path d="M502.913 235.65C503.782 235.65 504.488 234.945 504.488 234.075C504.488 233.205 503.782 232.5 502.913 232.5C502.043 232.5 501.338 233.205 501.338 234.075C501.338 234.945 502.043 235.65 502.913 235.65Z" fill="#3E414D"/>
<path d="M503.25 243.637C502.196 242.66 500.782 242.062 499.228 242.062C498.912 242.062 498.602 242.086 498.3 242.134" stroke="#9A695E" stroke-width="2.58065" stroke-linecap="round"/>
</g>
<path d="M535.151 229.728V245H532.809V232.048H532.725L529.076 234.432V232.217L532.873 229.728H535.151ZM539.559 245L546.373 231.837V231.711H538.505V229.728H548.777V231.795L541.985 245H539.559ZM554.62 236.984C552.532 237.005 551.393 235.445 551.414 233.187C551.393 230.952 552.574 229.412 554.62 229.412C556.709 229.412 557.827 230.952 557.827 233.187C557.827 235.466 556.666 237.005 554.62 236.984ZM554.62 235.508C555.612 235.508 556.076 234.58 556.076 233.187C556.076 231.816 555.633 230.888 554.62 230.888C553.65 230.909 553.144 231.816 553.144 233.187C553.144 234.58 553.629 235.508 554.62 235.508ZM564.26 245.316C562.172 245.316 561.033 243.777 561.054 241.52C561.033 239.262 562.235 237.723 564.26 237.723C566.348 237.723 567.466 239.262 567.466 241.52C567.466 243.777 566.306 245.316 564.26 245.316ZM564.26 243.819C565.252 243.819 565.716 242.891 565.716 241.52C565.716 240.127 565.273 239.199 564.26 239.199C563.29 239.22 562.784 240.148 562.784 241.52C562.784 242.891 563.29 243.819 564.26 243.819ZM553.144 245L563.627 229.728H565.547L555.063 245H553.144Z" fill="#C6C6C6"/>
<rect x="456" y="273" width="14.4" height="14.4" rx="3.6" fill="#DDE2EB"/>
<path d="M499.2 294.601C507.153 294.601 513.6 288.154 513.6 280.201C513.6 272.248 507.153 265.801 499.2 265.801C491.247 265.801 484.8 272.248 484.8 280.201C484.8 288.154 491.247 294.601 499.2 294.601Z" fill="#E46E80"/>
<path d="M508.955 282.988H489.445C488.932 282.988 488.516 283.404 488.516 283.917V290.421C488.516 290.934 488.932 291.35 489.445 291.35H508.955C509.468 291.35 509.884 290.934 509.884 290.421V283.917C509.884 283.404 509.468 282.988 508.955 282.988Z" fill="#494D59"/>
<path d="M507.057 288.33L507.425 287.961C507.607 287.78 507.607 287.486 507.425 287.304C507.244 287.123 506.95 287.123 506.768 287.304L506.4 287.673L506.075 287.347C506.411 287.093 506.632 286.693 506.632 286.239C506.632 285.471 506.007 284.846 505.239 284.846C504.47 284.846 503.845 285.471 503.845 286.239C503.845 286.388 503.875 286.529 503.918 286.663C503.549 287 503.344 287.495 503.387 288.006C503.457 288.839 504.2 289.491 505.076 289.491C505.562 289.491 506.032 289.302 506.393 288.979L506.768 289.355C506.859 289.445 506.978 289.491 507.097 289.491C507.216 289.491 507.335 289.445 507.425 289.355C507.607 289.173 507.607 288.879 507.425 288.698L507.057 288.33ZM505.239 285.775C505.495 285.775 505.703 285.983 505.703 286.239C505.703 286.496 505.495 286.704 505.239 286.704C504.983 286.704 504.774 286.496 504.774 286.239C504.774 285.983 504.983 285.775 505.239 285.775ZM505.076 288.562C504.685 288.562 504.342 288.277 504.312 287.928C504.296 287.732 504.362 287.548 504.485 287.408C504.645 287.512 504.828 287.581 505.025 287.611L505.736 288.322C505.55 288.473 505.317 288.562 505.076 288.562Z" fill="#F9FAFC"/>
<path d="M494.833 284.938C494.628 284.785 494.337 284.826 494.183 285.031L491.396 288.748C491.242 288.953 491.284 289.244 491.489 289.398C491.573 289.46 491.67 289.491 491.767 289.491C491.909 289.491 492.048 289.427 492.139 289.305L494.926 285.588C495.081 285.383 495.039 285.092 494.833 284.938Z" fill="#F9FAFC"/>
<path d="M496.878 288.097C497.134 288.097 497.342 287.89 497.342 287.633V285.31C497.342 285.053 497.134 284.846 496.878 284.846C496.621 284.846 496.413 285.053 496.413 285.31V287.633C496.413 287.89 496.621 288.097 496.878 288.097Z" fill="#F9FAFC"/>
<path d="M496.878 288.562C496.621 288.562 496.413 288.77 496.413 289.027C496.413 289.284 496.621 289.492 496.878 289.492H496.882C497.139 289.492 497.344 289.284 497.344 289.027C497.344 288.77 497.134 288.562 496.878 288.562Z" fill="#F9FAFC"/>
<path d="M502.452 285.775H502.35L502.438 285.423C502.5 285.175 502.349 284.923 502.1 284.86C501.851 284.796 501.599 284.949 501.537 285.198L501.393 285.775H500.492L500.58 285.423C500.642 285.175 500.491 284.923 500.242 284.86C499.992 284.796 499.741 284.949 499.679 285.198L499.535 285.775H499.2C498.943 285.775 498.736 285.983 498.736 286.24C498.736 286.497 498.944 286.704 499.2 286.704H499.302L499.07 287.633H498.736C498.479 287.633 498.271 287.841 498.271 288.098C498.271 288.355 498.479 288.562 498.736 288.562H498.838L498.75 288.914C498.687 289.163 498.839 289.415 499.088 289.477C499.125 289.487 499.164 289.492 499.201 289.492C499.409 289.492 499.598 289.351 499.651 289.14L499.795 288.562H500.696L500.608 288.914C500.545 289.163 500.697 289.415 500.946 289.477C500.983 289.487 501.022 289.492 501.059 289.492C501.267 289.492 501.456 289.351 501.509 289.14L501.653 288.562H501.987C502.244 288.562 502.452 288.355 502.452 288.098C502.452 287.841 502.244 287.633 501.987 287.633H501.885L502.118 286.704H502.452C502.709 286.704 502.916 286.497 502.916 286.24C502.916 285.983 502.709 285.775 502.452 285.775ZM500.928 287.633H500.027L500.26 286.704H501.16L500.928 287.633Z" fill="#F9FAFC"/>
<path d="M492.697 285.775C492.697 285.263 492.28 284.846 491.768 284.846C491.256 284.846 490.839 285.263 490.839 285.775C490.839 286.287 491.256 286.704 491.768 286.704C492.28 286.704 492.697 286.287 492.697 285.775Z" fill="#F9FAFC"/>
<path d="M494.555 287.633C494.043 287.633 493.626 288.05 493.626 288.562C493.626 289.074 494.043 289.491 494.555 289.491C495.067 289.491 495.484 289.074 495.484 288.562C495.484 288.05 495.067 287.633 494.555 287.633Z" fill="#F9FAFC"/>
<path d="M506.257 273.644C506.099 273.414 505.836 273.406 505.554 273.514C505.554 273.514 504.282 274.096 503.501 274.295C502.72 274.493 501.448 274.676 501.448 274.676C501.193 274.726 500.903 274.946 500.92 275.225C500.937 275.504 501.177 275.716 501.456 275.7L501.508 275.696C501.541 275.694 501.587 275.69 501.646 275.684C501.764 275.673 501.933 275.655 502.145 275.627C502.566 275.57 503.156 275.473 503.831 275.308C504.527 275.138 505.095 274.903 505.49 274.709C505.687 274.611 505.843 274.524 505.951 274.46C506.005 274.428 506.047 274.401 506.077 274.382L506.128 274.348C506.358 274.19 506.416 273.874 506.257 273.644Z" fill="#3E414D"/>
<path d="M492.13 273.644C492.289 273.414 492.552 273.406 492.833 273.514C492.833 273.514 494.105 274.096 494.886 274.295C495.667 274.493 496.94 274.676 496.94 274.676C497.195 274.726 497.484 274.946 497.467 275.225C497.45 275.504 497.211 275.716 496.932 275.7L496.879 275.696C496.847 275.694 496.801 275.69 496.742 275.684C496.624 275.673 496.454 275.655 496.243 275.627C495.821 275.57 495.232 275.473 494.557 275.308C493.86 275.138 493.293 274.903 492.898 274.709C492.7 274.611 492.545 274.524 492.437 274.46C492.383 274.428 492.341 274.401 492.311 274.382L492.26 274.348C492.03 274.19 491.972 273.874 492.13 273.644Z" fill="#3E414D"/>
<path d="M495.488 280.201C496.357 280.201 497.063 279.496 497.063 278.626C497.063 277.756 496.357 277.051 495.488 277.051C494.618 277.051 493.913 277.756 493.913 278.626C493.913 279.496 494.618 280.201 495.488 280.201Z" fill="#3E414D"/>
<path d="M502.912 280.201C503.782 280.201 504.487 279.496 504.487 278.626C504.487 277.756 503.782 277.051 502.912 277.051C502.043 277.051 501.337 277.756 501.337 278.626C501.337 279.496 502.043 280.201 502.912 280.201Z" fill="#3E414D"/>
<path d="M534.602 272.718C537.408 272.739 540.361 274.427 540.361 280.017C540.361 285.375 538.062 288.412 534.391 288.412C531.586 288.412 529.603 286.682 529.245 284.193H531.544C531.86 285.48 532.852 286.387 534.391 286.387C536.754 286.387 538.125 284.32 538.146 280.839H537.956C537.134 282.126 535.699 282.907 534.054 282.907C531.312 282.907 529.118 280.818 529.118 277.886C529.118 274.975 531.291 272.697 534.602 272.718ZM534.602 274.659C532.746 274.659 531.375 276.093 531.375 277.844C531.375 279.616 532.704 281.008 534.56 281.008C536.395 281.008 537.83 279.511 537.83 277.823C537.83 276.178 536.48 274.659 534.602 274.659ZM546.309 280.186C544.221 280.207 543.082 278.646 543.103 276.389C543.082 274.153 544.263 272.613 546.309 272.613C548.398 272.613 549.516 274.153 549.516 276.389C549.516 278.667 548.355 280.207 546.309 280.186ZM546.309 278.709C547.301 278.709 547.765 277.781 547.765 276.389C547.765 275.018 547.322 274.089 546.309 274.089C545.339 274.111 544.833 275.018 544.833 276.389C544.833 277.781 545.318 278.709 546.309 278.709ZM555.949 288.518C553.861 288.518 552.722 286.978 552.743 284.721C552.722 282.464 553.924 280.924 555.949 280.924C558.038 280.924 559.156 282.464 559.156 284.721C559.156 286.978 557.995 288.518 555.949 288.518ZM555.949 287.02C556.941 287.02 557.405 286.092 557.405 284.721C557.405 283.329 556.962 282.4 555.949 282.4C554.979 282.421 554.473 283.35 554.473 284.721C554.473 286.092 554.979 287.02 555.949 287.02ZM544.833 288.201L555.316 272.929H557.236L546.752 288.201H544.833Z" fill="#C6C6C6"/>
<path fill-rule="evenodd" clip-rule="evenodd" d="M166.917 27.4425C166.875 20.941 161.563 15.5585 155.079 16.0309C132.233 17.6952 109.92 23.7588 89.3699 33.888C83.5418 36.7606 81.6719 44.0667 84.9182 49.6952C88.1707 55.3345 95.4083 57.2928 101.275 54.4712C117.836 46.506 136.038 41.4137 155.234 39.8396C161.715 39.3082 166.96 33.9446 166.917 27.4425Z" fill="#DDE2EB"/>
<path d="M90.8337 36.8578C111.002 26.9171 132.899 20.9664 155.32 19.333L154.838 12.7287C131.567 14.424 108.839 20.6005 87.9061 30.9182L90.8337 36.8578ZM102.71 57.4549C118.913 49.6621 136.72 44.6798 155.505 43.1395L154.964 36.5398C135.355 38.1476 116.76 43.3498 99.8401 51.4874L102.71 57.4549ZM155.505 43.1395C163.589 42.4766 170.283 35.7751 170.228 27.421L163.607 27.4641C163.637 32.1141 159.84 36.1399 154.964 36.5398L155.505 43.1395ZM82.0501 51.3494C86.2326 58.6011 95.4009 60.9703 102.71 57.4549L99.8401 51.4874C95.4158 53.6152 90.1089 52.0679 87.7863 48.041L82.0501 51.3494ZM155.32 19.333C159.709 19.0133 163.575 22.6866 163.607 27.4641L170.228 27.421C170.175 19.1954 163.418 12.1037 154.838 12.7287L155.32 19.333ZM87.9061 30.9182C80.2024 34.7153 77.9389 44.2213 82.0501 51.3494L87.7863 48.041C85.4049 43.9121 86.8812 38.8059 90.8337 36.8578L87.9061 30.9182Z" fill="#ECEFF4"/>
<path fill-rule="evenodd" clip-rule="evenodd" d="M80.9191 66.3323C86.2741 62.66 88.1787 55.4233 84.9346 49.7986C81.6843 44.163 74.4053 42.1164 69.0004 45.7372C52.8857 56.5327 38.6188 69.9069 26.7826 85.3479C14.9415 100.795 5.72605 118.06 -0.520244 136.444C-2.61108 142.598 1.22218 149.085 7.49957 150.769C13.7843 152.454 20.2719 148.721 22.4283 142.581C33.3976 111.351 54.1124 84.7159 80.9191 66.3323Z" fill="#D6DCE4"/>
<path d="M26.7826 85.3479L24.1548 83.3336L26.7826 85.3479ZM29.4103 87.3622C41.0265 72.2081 55.0282 59.0826 70.8431 48.488L67.1576 42.9865C50.7432 53.9828 36.211 67.6056 24.1548 83.3336L29.4103 87.3622ZM2.61469 137.509C8.74501 119.466 17.7892 102.523 29.4103 87.3622L24.1548 83.3336C12.0937 99.0682 2.7071 116.653 -3.65518 135.379L2.61469 137.509ZM25.5521 143.679C36.2848 113.122 56.5558 87.0549 82.7916 69.0629L79.0465 63.6018C51.6689 82.3769 30.5104 109.58 19.3044 141.484L25.5521 143.679ZM6.64181 153.967C14.7277 156.135 22.8673 151.323 25.5521 143.679L19.3044 141.484C17.6766 146.119 12.8409 148.773 8.35732 147.571L6.64181 153.967ZM-3.65518 135.379C-6.4173 143.508 -1.31285 151.833 6.64181 153.967L8.35732 147.571C3.75721 146.337 1.19513 141.687 2.61469 137.509L-3.65518 135.379ZM82.0665 51.4528C84.3851 55.4728 83.0804 60.8354 79.0465 63.6018L82.7916 69.0629C89.4677 64.4846 91.9723 55.3738 87.8027 48.1444L82.0665 51.4528ZM87.8027 48.1444C83.6887 41.0113 74.3058 38.1978 67.1576 42.9865L70.8431 48.488C74.5048 46.0349 79.6798 47.3147 82.0665 51.4528L87.8027 48.1444Z" fill="#ECEFF4"/>
<path fill-rule="evenodd" clip-rule="evenodd" d="M50.5345 311.4C55.1261 306.804 55.1588 299.313 50.928 294.383C27.7434 267.363 13.7329 232.227 13.7329 193.814C13.7329 184.073 14.6339 174.543 16.3571 165.302C17.5479 158.916 13.7929 152.453 7.51831 150.77C1.23638 149.085 -5.33915 152.788 -6.6026 159.168C-11.8938 185.887 -11.0045 213.52 -3.9348 239.932C3.13396 266.34 16.1638 290.713 34.0881 311.202C38.3721 316.099 45.9362 316.003 50.5345 311.4Z" fill="#B7C2D2"/>
<path d="M-3.9348 239.932L-0.736455 239.075L-3.9348 239.932ZM16.3571 165.302L13.1022 164.695L16.3571 165.302ZM34.0881 311.202L36.5801 309.022L34.0881 311.202ZM50.928 294.383L48.4153 296.539L50.928 294.383ZM53.4407 292.227C30.7519 265.785 17.0439 231.407 17.0439 193.814H10.422C10.422 233.047 24.7349 268.942 48.4153 296.539L53.4407 292.227ZM17.0439 193.814C17.0439 184.278 17.9259 174.951 19.6119 165.909L13.1022 164.695C11.3419 174.135 10.422 183.869 10.422 193.814H17.0439ZM-0.736455 239.075C-7.67492 213.154 -8.54769 186.034 -3.35473 159.811L-9.85047 158.524C-15.2399 185.739 -14.3341 213.886 -7.13314 240.788L-0.736455 239.075ZM36.5801 309.022C18.9889 288.914 6.20107 264.993 -0.736455 239.075L-7.13314 240.788C0.0668526 267.686 13.3387 292.512 31.5962 313.382L36.5801 309.022ZM8.37607 147.572C0.41827 145.437 -8.18086 150.093 -9.85047 158.524L-3.35473 159.811C-2.49743 155.482 2.05448 152.732 6.66056 153.967L8.37607 147.572ZM19.6119 165.909C21.0953 157.954 16.4463 149.736 8.37607 147.572L6.66056 153.967C11.1395 155.169 14.0006 159.877 13.1022 164.695L19.6119 165.909ZM31.5962 313.382C37.2626 319.859 47.0577 319.566 52.8769 313.74L48.1921 309.06C44.8146 312.441 39.4815 312.339 36.5801 309.022L31.5962 313.382ZM48.4153 296.539C51.6005 300.251 51.4749 305.774 48.1921 309.06L52.8769 313.74C58.7774 307.834 58.717 298.376 53.4407 292.227L48.4153 296.539Z" fill="#ECEFF4"/>
<path fill-rule="evenodd" clip-rule="evenodd" d="M251.081 337.866C247.828 332.226 240.591 330.269 234.724 333.09C214.531 342.802 191.9 348.243 168 348.243C129.635 348.243 94.542 334.225 67.5525 311.026C62.6184 306.784 55.1146 306.817 50.5162 311.42C45.9246 316.016 45.8295 323.568 50.7145 327.851C77.1029 350.99 109.812 365.868 144.765 370.475C179.718 375.081 215.157 369.185 246.628 353.672C252.456 350.8 254.327 343.494 251.081 337.866Z" fill="#FBC85B"/>
<path d="M144.765 370.475L144.333 373.757L144.765 370.475ZM234.724 333.09L233.289 330.107L234.724 333.09ZM233.289 330.107C213.534 339.608 191.393 344.932 168 344.932V351.554C192.408 351.554 215.528 345.997 236.159 336.074L233.289 330.107ZM168 344.932C130.457 344.932 96.1227 331.217 69.7107 308.515L65.3943 313.536C92.9612 337.232 128.814 351.554 168 351.554V344.932ZM145.198 367.192C110.895 362.672 78.7951 348.07 52.8974 325.362L48.5316 330.34C75.4108 353.91 108.728 369.065 144.333 373.757L145.198 367.192ZM245.164 350.703C214.279 365.926 179.499 371.713 145.198 367.192L144.333 373.757C179.936 378.45 216.035 372.443 248.092 356.642L245.164 350.703ZM48.1738 309.08C42.3628 314.897 42.0707 324.675 48.5316 330.34L52.8974 325.362C49.5884 322.46 49.4864 317.136 52.8586 313.76L48.1738 309.08ZM69.7107 308.515C63.5576 303.226 54.0831 303.165 48.1738 309.08L52.8586 313.76C56.1461 310.469 61.6792 310.343 65.3943 313.536L69.7107 308.515ZM248.092 356.642C255.795 352.845 258.06 343.34 253.949 336.212L248.212 339.52C250.594 343.648 249.117 348.754 245.164 350.703L248.092 356.642ZM236.159 336.074C240.584 333.946 245.89 335.493 248.212 339.52L253.949 336.212C249.766 328.96 240.598 326.591 233.289 330.107L236.159 336.074Z" fill="#ECEFF4"/>
<path fill-rule="evenodd" clip-rule="evenodd" d="M332.451 262.004C318.962 294.602 296.147 322.372 266.999 341.898C261.594 345.519 254.315 343.473 251.065 337.837C247.821 332.212 249.726 324.975 255.081 321.303C295.65 293.482 322.266 246.76 322.266 193.816C322.266 112.495 259.471 45.8549 179.772 39.8345C173.289 39.3448 168 34.0147 168 27.5131C168 21.0114 173.277 15.5939 179.764 16.024C214.762 18.3439 248.394 30.9748 276.359 52.4553C307.446 76.3334 329.793 109.812 339.935 147.7C350.076 185.588 347.446 225.766 332.451 262.004Z" fill="#48BB98"/>
<path d="M332.451 262.004L329.391 260.739L332.451 262.004ZM276.359 52.4553L274.343 55.0811V55.0811L276.359 52.4553ZM339.935 147.7L336.736 148.556L339.935 147.7ZM179.772 39.8345L179.523 43.1361L179.772 39.8345ZM255.081 321.303L253.209 318.572L255.081 321.303ZM266.999 341.898L265.157 339.147L266.999 341.898ZM268.842 344.649C298.532 324.76 321.771 296.473 335.51 263.27L329.391 260.739C316.153 292.731 293.762 319.985 265.157 339.147L268.842 344.649ZM318.955 193.816C318.955 245.624 292.915 291.342 253.209 318.572L256.954 324.034C298.385 295.621 325.577 247.897 325.577 193.816H318.955ZM179.523 43.1361C257.505 49.0268 318.955 114.237 318.955 193.816H325.577C325.577 110.753 261.437 42.683 180.022 36.533L179.523 43.1361ZM278.376 49.8296C249.891 27.9495 215.633 15.0834 179.983 12.7203L179.545 19.3277C213.892 21.6044 246.898 34.0002 274.343 55.0811L278.376 49.8296ZM343.133 146.844C332.803 108.253 310.041 74.1518 278.376 49.8296L274.343 55.0811C304.851 78.5151 326.783 111.372 336.736 148.556L343.133 146.844ZM335.51 263.27C350.783 226.359 353.463 185.435 343.133 146.844L336.736 148.556C346.69 185.74 344.108 225.173 329.391 260.739L335.51 263.27ZM180.022 36.533C175.14 36.1642 171.311 32.1597 171.311 27.5131H164.689C164.689 35.8697 171.438 42.5254 179.523 43.1361L180.022 36.533ZM253.933 336.183C251.614 332.163 252.919 326.8 256.954 324.034L253.209 318.572C246.533 323.151 244.027 332.262 248.197 339.491L253.933 336.183ZM171.311 27.5131C171.311 22.7355 175.154 19.0365 179.545 19.3277L179.983 12.7203C171.4 12.1513 164.689 19.2874 164.689 27.5131H171.311ZM265.157 339.147C261.495 341.601 256.32 340.321 253.933 336.183L248.197 339.491C252.311 346.625 261.694 349.437 268.842 344.649L265.157 339.147Z" fill="#ECEFF4"/>
<g clip-path="url(#clip4_0_10369)">
<path d="M165.033 194.189C184.694 194.189 200.633 178.234 200.633 158.553C200.633 138.871 184.694 122.916 165.033 122.916C145.372 122.916 129.433 138.871 129.433 158.553C129.433 178.234 145.372 194.189 165.033 194.189Z" fill="#FBC85B"/>
<path d="M155.855 155.212C158.005 155.212 159.749 153.466 159.749 151.314C159.749 149.161 158.005 147.416 155.855 147.416C153.704 147.416 151.961 149.161 151.961 151.314C151.961 153.466 153.704 155.212 155.855 155.212Z" fill="#3E414D"/>
<path d="M174.212 155.212C176.362 155.212 178.105 153.466 178.105 151.314C178.105 149.161 176.362 147.416 174.212 147.416C172.061 147.416 170.318 149.161 170.318 151.314C170.318 153.466 172.061 155.212 174.212 155.212Z" fill="#3E414D"/>
<path d="M180.608 167.322C177.661 172.788 171.823 176.51 165.103 176.51C158.382 176.51 152.544 172.788 149.597 167.322" stroke="#9A695E" stroke-width="4.74687" stroke-linecap="round"/>
</g>
<path d="M160.713 213.452V255.299H154.781V213.452H160.713ZM148.159 217.821C148.159 230.513 143.698 241.044 128.753 248.125L125.672 243.435C136.479 238.33 141.238 231.709 142.181 222.419H127.925V217.821H148.159ZM174.738 214.464V218.143H178.647V214.464H184.073V230.697H169.22V214.464H174.738ZM174.738 226.006H178.647V222.557H174.738V226.006ZM192.075 214.464V218.143H195.846V214.464H201.41V230.697H186.511V214.464H192.075ZM192.075 226.006H195.846V222.557H192.075V226.006ZM204.399 233.502V238.192H166.231V233.502H204.399ZM199.754 241.09V254.839H170.646V241.09H199.754ZM176.394 245.734V250.149H194.052V245.734H176.394Z" fill="#3E3E3E"/>
<ellipse cx="168" cy="193.818" rx="139.433" ry="139.576" stroke="#E8E8E8" stroke-width="2.94306" stroke-dasharray="2.94 14.72"/>
</g>
<rect x="0.5" y="0.5" width="743" height="387" rx="15.5" stroke="#D2D9E3"/>
<defs>
<clipPath id="clip0_0_10369">
<rect width="744" height="388" rx="16" fill="white"/>
</clipPath>
<clipPath id="clip1_0_10369">
<rect width="28.8" height="28.8001" fill="white" transform="translate(484.8 93)"/>
</clipPath>
<clipPath id="clip2_0_10369">
<rect width="28.8" height="28.8001" fill="white" transform="translate(484.8 136.199)"/>
</clipPath>
<clipPath id="clip3_0_10369">
<rect width="28.8" height="28.8001" fill="white" transform="translate(484.8 222.6)"/>
</clipPath>
<clipPath id="clip4_0_10369">
<rect width="71.2" height="71.273" fill="white" transform="translate(129.433 122.916)"/>
</clipPath>
</defs>
</svg>
