<svg width="183" height="105" viewBox="0 0 183 105" fill="none" xmlns="http://www.w3.org/2000/svg">
<path d="M63.2218 39.264C63.2218 39.744 63.0298 40.128 62.7418 40.464C62.3578 40.752 61.9738 40.896 61.5418 40.896H29.9578C26.6938 40.896 25.1098 39.264 25.1098 36V29.376C25.1098 28.944 25.2538 28.56 25.5898 28.224C25.8778 27.936 26.2618 27.792 26.7418 27.792H52.3258V26.448H26.5498C26.0698 26.448 25.6858 26.304 25.3978 25.968C25.0618 25.68 24.9178 25.344 24.9178 24.864V21.888C24.9178 21.456 25.0618 21.072 25.3978 20.736C25.6858 20.448 26.0698 20.304 26.5498 20.304H61.3018C61.7338 20.304 62.1178 20.496 62.5018 20.784C62.7898 21.168 62.9818 21.552 62.9818 21.984V31.824C62.9818 32.304 62.7898 32.64 62.5018 32.928C62.1178 33.264 61.7338 33.408 61.3018 33.408H35.8618V34.656H61.5418C61.9738 34.656 62.3578 34.8 62.7418 35.136C63.0298 35.424 63.2218 35.808 63.2218 36.288V39.264ZM29.0938 18.672C27.3658 18.672 26.0218 18.24 25.1098 17.376C24.1498 16.56 23.7178 15.216 23.7178 13.392V2.112C23.7178 1.68 23.8618 1.296 24.1978 0.960002C24.4858 0.672 24.8218 0.480002 25.3018 0.480002H32.8378C33.2698 0.480002 33.6538 0.672 33.9898 0.960002C34.2778 1.296 34.4698 1.68 34.4698 2.112V11.232H48.5338C48.9658 11.232 49.3498 11.424 49.6858 11.712C49.9738 12.096 50.1658 12.48 50.1658 12.96V17.04C50.1658 17.52 49.9738 17.904 49.6858 18.192C49.3498 18.528 48.9658 18.672 48.5338 18.672H29.0938ZM61.3498 0C61.7818 0 62.1658 0.192 62.5018 0.480002C62.7898 0.816001 62.9818 1.2 62.9818 1.632V5.184H66.1978C66.6298 5.184 67.0138 5.376 67.3498 5.664C67.6378 6.048 67.8298 6.432 67.8298 6.912V11.808C67.8298 12.288 67.6378 12.672 67.3498 12.96C67.0138 13.296 66.6298 13.44 66.1978 13.44H62.9818V17.472C62.9818 17.952 62.7898 18.336 62.5018 18.624C62.1658 18.96 61.7818 19.104 61.3498 19.104H54.1498C53.6698 19.104 53.2858 18.96 52.9978 18.624C52.6618 18.336 52.5178 17.952 52.5178 17.472V1.632C52.5178 1.2 52.6618 0.816001 52.9978 0.480002C53.2858 0.192 53.6698 0 54.1498 0H61.3498Z" fill="#373737"/>
<path d="M95.6443 0.960002C96.1243 0.960002 96.5083 1.152 96.8443 1.44C97.1323 1.776 97.3243 2.16 97.3243 2.592V31.776C97.3243 34.464 96.6523 36.48 95.3563 37.872C94.0123 39.216 91.9003 39.936 89.1163 39.936H79.1323C73.6123 39.936 70.8763 37.2 70.8763 31.776V2.592C70.8763 2.16 71.0203 1.776 71.4043 1.44C71.6923 1.152 72.0763 0.960002 72.5563 0.960002H95.6443ZM81.0523 31.776H87.2443V9.12H81.0523V31.776ZM108.508 0.480002C108.94 0.480002 109.324 0.672 109.66 0.960002C109.948 1.296 110.14 1.68 110.14 2.112V13.824H113.356C113.788 13.824 114.172 14.016 114.508 14.304C114.796 14.688 114.988 15.072 114.988 15.552V21.408C114.988 21.888 114.796 22.272 114.508 22.56C114.172 22.896 113.788 23.04 113.356 23.04H110.14V39.744C110.14 40.224 109.948 40.608 109.66 40.944C109.324 41.232 108.94 41.376 108.508 41.376H101.26C100.78 41.376 100.444 41.232 100.156 40.944C99.8203 40.608 99.6763 40.224 99.6763 39.744V2.112C99.6763 1.68 99.8203 1.296 100.156 0.960002C100.444 0.672 100.78 0.480002 101.26 0.480002H108.508Z" fill="#373737"/>
<path d="M142.275 0.960002C142.707 0.960002 143.091 1.152 143.427 1.44C143.715 1.824 143.907 2.208 143.907 2.688V7.488C143.907 7.968 143.715 8.352 143.427 8.64C143.091 8.976 142.707 9.12 142.275 9.12H128.115V31.776H143.235C143.667 31.776 144.051 31.968 144.387 32.256C144.675 32.64 144.867 33.024 144.867 33.504V38.304C144.867 38.736 144.675 39.12 144.387 39.456C144.051 39.744 143.667 39.936 143.235 39.936H126.195C120.675 39.936 117.939 37.2 117.939 31.776V2.592C117.939 2.16 118.083 1.776 118.467 1.44C118.755 1.152 119.139 0.960002 119.619 0.960002H142.275ZM155.571 0.480002C156.003 0.480002 156.387 0.672 156.723 0.960002C157.011 1.296 157.203 1.68 157.203 2.112V13.824H160.419C160.851 13.824 161.235 14.016 161.571 14.304C161.859 14.688 162.051 15.072 162.051 15.552V21.408C162.051 21.888 161.859 22.272 161.571 22.56C161.235 22.896 160.851 23.04 160.419 23.04H157.203V39.744C157.203 40.224 157.011 40.608 156.723 40.944C156.387 41.232 156.003 41.376 155.571 41.376H148.323C147.843 41.376 147.507 41.232 147.219 40.944C146.883 40.608 146.739 40.224 146.739 39.744V2.112C146.739 1.68 146.883 1.296 147.219 0.960002C147.507 0.672 147.843 0.480002 148.323 0.480002H155.571Z" fill="#373737"/>
<path d="M31.488 63.48C31.92 63.48 32.304 63.672 32.64 63.96C32.928 64.296 33.12 64.68 33.12 65.112V102.36C33.12 102.84 32.928 103.224 32.64 103.56C32.304 103.848 31.92 103.992 31.488 103.992H25.584C25.104 103.992 24.768 103.848 24.48 103.56C24.144 103.224 24 102.84 24 102.36V85.8H21.36V92.568C21.36 94.104 21.168 95.448 20.784 96.696C20.4 97.944 19.824 99.048 19.104 100.008C18.336 100.92 17.424 101.64 16.32 102.168C15.168 102.648 13.824 102.936 12.384 102.936H8.928C7.392 102.936 6.096 102.648 4.992 102.168C3.84 101.64 2.928 100.92 2.208 100.008C1.44 99.048 0.912 97.944 0.576 96.696C0.192 95.448 0 94.104 0 92.568V73.896C0 72.408 0.192 71.016 0.576 69.72C0.912 68.472 1.44 67.368 2.208 66.408C2.928 65.496 3.84 64.776 4.992 64.248C6.096 63.768 7.392 63.48 8.928 63.48H12.384C13.824 63.48 15.168 63.768 16.32 64.248C17.424 64.776 18.336 65.496 19.104 66.408C19.824 67.368 20.4 68.472 20.784 69.72C21.168 71.016 21.36 72.408 21.36 73.896V76.584H24V65.112C24 64.68 24.144 64.296 24.48 63.96C24.768 63.672 25.104 63.48 25.584 63.48H31.488ZM42.624 63.48C43.056 63.48 43.44 63.672 43.776 63.96C44.064 64.296 44.256 64.68 44.256 65.112V102.744C44.256 103.224 44.064 103.608 43.776 103.944C43.44 104.232 43.056 104.376 42.624 104.376H36.624C36.144 104.376 35.808 104.232 35.52 103.944C35.184 103.608 35.04 103.224 35.04 102.744V65.112C35.04 64.68 35.184 64.296 35.52 63.96C35.808 63.672 36.144 63.48 36.624 63.48H42.624ZM10.656 71.64C10.176 71.64 9.792 71.832 9.456 72.168C9.072 72.552 8.88 73.272 8.88 74.424V92.04C8.88 93.192 9.072 93.912 9.456 94.248C9.792 94.632 10.176 94.776 10.656 94.776H10.896C11.328 94.776 11.76 94.632 12.144 94.248C12.528 93.912 12.72 93.192 12.72 92.04V74.424C12.72 73.272 12.528 72.552 12.144 72.168C11.76 71.832 11.328 71.64 10.896 71.64H10.656Z" fill="#373737"/>
<path d="M49.8608 102.936C49.3808 102.936 48.9967 102.744 48.7087 102.456C48.3727 102.12 48.2288 101.736 48.2288 101.304V96.504C48.2288 96.024 48.3727 95.64 48.7087 95.256C48.9967 94.968 49.3808 94.776 49.8608 94.776H51.1087V72.12H50.3408C49.8608 72.12 49.4767 71.976 49.1888 71.64C48.8527 71.352 48.7087 70.968 48.7087 70.488V65.688C48.7087 65.208 48.8527 64.824 49.1888 64.44C49.4767 64.152 49.8608 63.96 50.3408 63.96H73.5247C73.9568 63.96 74.3408 64.152 74.6768 64.44C74.9648 64.824 75.1568 65.208 75.1568 65.688V70.488C75.1568 70.968 74.9648 71.352 74.6768 71.64C74.3408 71.976 73.9568 72.12 73.5247 72.12H72.7568V94.776H74.0048C74.4368 94.776 74.8208 94.968 75.1568 95.256C75.4447 95.64 75.6368 96.024 75.6368 96.504V101.304C75.6368 101.736 75.4447 102.12 75.1568 102.456C74.8208 102.744 74.4368 102.936 74.0048 102.936H49.8608ZM87.3008 63.48C87.7327 63.48 88.1168 63.672 88.4528 63.96C88.7408 64.296 88.9328 64.68 88.9328 65.112V102.744C88.9328 103.224 88.7408 103.608 88.4528 103.944C88.1168 104.232 87.7327 104.376 87.3008 104.376H80.0528C79.5728 104.376 79.2368 104.232 78.9488 103.944C78.6128 103.608 78.4688 103.224 78.4688 102.744V65.112C78.4688 64.68 78.6128 64.296 78.9488 63.96C79.2368 63.672 79.5728 63.48 80.0528 63.48H87.3008ZM60.3247 94.776H63.7808V72.12H60.3247V94.776Z" fill="#373737"/>
<path d="M96.1178 72.6C95.6377 72.6 95.2538 72.456 94.9658 72.12C94.6298 71.832 94.4857 71.448 94.4857 70.968V65.208C94.4857 64.728 94.6298 64.344 94.9658 63.96C95.2538 63.672 95.6377 63.48 96.1178 63.48H131.206C131.686 63.48 132.07 63.672 132.406 63.96C132.694 64.296 132.886 64.68 132.886 65.112V88.344C132.886 88.824 132.694 89.208 132.406 89.496C132.07 89.832 131.686 89.976 131.254 89.976H124.15C123.67 89.976 123.238 89.832 122.95 89.496C122.566 89.208 122.422 88.824 122.422 88.344V72.6H96.1178ZM132.982 95.544C133.414 95.544 133.798 95.736 134.134 96.024C134.422 96.36 134.566 96.744 134.566 97.176V102.264C134.566 102.744 134.422 103.128 134.134 103.464C133.798 103.752 133.414 103.896 132.982 103.896H94.3897C93.9097 103.896 93.5737 103.752 93.2858 103.464C92.9497 103.128 92.8057 102.744 92.8057 102.264V97.176C92.8057 96.744 92.9497 96.36 93.2858 96.024C93.5737 95.736 93.9097 95.544 94.3897 95.544H132.982Z" fill="#373737"/>
<path d="M158.874 74.568C158.874 75.048 158.682 75.432 158.394 75.72C158.058 76.056 157.674 76.2 157.242 76.2H146.874V77.256H158.202C158.634 77.256 159.018 77.448 159.354 77.736C159.642 78.12 159.834 78.504 159.834 78.984V81.96C159.834 82.44 159.642 82.824 159.354 83.112C159.018 83.448 158.634 83.592 158.202 83.592H143.85C142.122 83.592 140.778 83.16 139.866 82.296C138.906 81.48 138.474 80.136 138.474 78.312V72.456C138.474 71.976 138.618 71.592 138.954 71.208C139.242 70.92 139.626 70.728 140.106 70.728H150.666V69.72H139.866C139.386 69.72 139.002 69.576 138.714 69.24C138.378 68.952 138.234 68.568 138.234 68.088V65.208C138.234 64.728 138.378 64.344 138.714 63.96C139.002 63.672 139.386 63.48 139.866 63.48H157.194C157.626 63.48 158.01 63.672 158.394 63.96C158.682 64.296 158.874 64.68 158.874 65.112V74.568ZM169.146 63C169.578 63 169.962 63.192 170.298 63.48C170.586 63.816 170.778 64.2 170.778 64.632V68.664H173.034V64.632C173.034 64.2 173.178 63.816 173.514 63.48C173.802 63.192 174.138 63 174.618 63H180.858C181.29 63 181.674 63.192 182.01 63.48C182.298 63.816 182.49 64.2 182.49 64.632V82.152C182.49 82.632 182.298 83.016 182.01 83.304C181.674 83.64 181.29 83.784 180.858 83.784H174.618C174.138 83.784 173.802 83.64 173.514 83.304C173.178 83.016 173.034 82.632 173.034 82.152V76.92H170.778V82.056C170.778 82.536 170.586 82.92 170.298 83.208C169.962 83.544 169.578 83.688 169.146 83.688H163.002C162.522 83.688 162.186 83.544 161.898 83.208C161.562 82.92 161.418 82.536 161.418 82.056V64.632C161.418 64.2 161.562 63.816 161.898 63.48C162.186 63.192 162.522 63 163.002 63H169.146ZM150.522 96.6H172.41V92.664H150.522V96.6ZM145.818 103.896C144.09 103.896 142.746 103.464 141.834 102.648C140.874 101.784 140.442 100.44 140.442 98.616V87.096C140.442 86.664 140.586 86.28 140.97 85.944C141.258 85.656 141.642 85.464 142.122 85.464H180.81C181.29 85.464 181.674 85.656 182.01 85.944C182.298 86.28 182.49 86.664 182.49 87.096V98.616C182.49 100.44 182.01 101.784 181.098 102.648C180.138 103.464 178.842 103.896 177.114 103.896H145.818Z" fill="#373737"/>
</svg>
